<svg width="212" height="212" viewBox="0 0 212 212" fill="none" xmlns="http://www.w3.org/2000/svg">
<rect width="212" height="212" rx="20" fill="#C4C4C4"/>
<path d="M171.199 139.919C163.209 131.262 153.514 124.354 142.723 119.629C131.932 114.904 120.279 112.465 108.499 112.465C96.7191 112.465 85.0667 114.904 74.2757 119.629C63.4848 124.354 53.7891 131.262 45.7995 139.919C44.566 141.283 43.876 143.052 43.8604 144.891V174.724C43.8865 176.685 44.6838 178.557 46.0797 179.934C47.4756 181.311 49.3577 182.084 51.3187 182.083H165.68C167.658 182.083 169.555 181.298 170.954 179.899C172.352 178.5 173.138 176.603 173.138 174.625V144.792C173.098 142.987 172.41 141.257 171.199 139.919Z" fill="#AAAAAA"/>
<path d="M108.5 102.528C127.722 102.528 143.305 86.9448 143.305 67.7222C143.305 48.4996 127.722 32.9166 108.5 32.9166C89.2773 32.9166 73.6943 48.4996 73.6943 67.7222C73.6943 86.9448 89.2773 102.528 108.5 102.528Z" fill="#AAAAAA"/>
</svg>
