<svg xmlns="http://www.w3.org/2000/svg" width="20" height="20" viewBox="0 0 20 20"><g><g><path fill="#aaa" d="M12.5 11.25c0 .339-.124.631-.371.879-.247.247-.54.371-.879.371h-2.5c-.352 0-.648-.124-.889-.371a1.217 1.217 0 0 1-.361-.879H1.25c-.352 0-.648-.124-.889-.371A1.229 1.229 0 0 1 0 9.99c0-.345.12-.638.361-.879.241-.24.537-.361.889-.361H7.5c0-.352.12-.648.361-.889.241-.24.537-.361.889-.361h2.5c.352 0 .648.12.889.361.24.241.361.537.361.889h6.25c.352 0 .648.12.889.361.24.241.361.534.361.88 0 .344-.12.64-.361.888-.241.247-.537.371-.889.371zm-1.25-2.5h-2.5v2.5h2.5zm6.25-5c0 .339-.124.632-.371.879S16.589 5 16.25 5h-2.5c-.352 0-.648-.124-.889-.371a1.217 1.217 0 0 1-.361-.879H1.25c-.352 0-.648-.124-.889-.371A1.229 1.229 0 0 1 0 2.49c0-.345.12-.638.361-.879.241-.24.537-.361.889-.361H12.5c0-.352.12-.648.361-.889.241-.24.537-.361.889-.361h2.5c.352 0 .648.12.889.361.24.241.361.537.361.889h1.25c.352 0 .648.12.889.361.24.241.361.534.361.88 0 .344-.12.64-.361.888-.241.247-.537.371-.889.371zm-1.25-2.5h-2.5v2.5h2.5zm-13.75 15c0-.352.12-.648.361-.889.241-.24.537-.361.889-.361h2.5c.339 0 .632.12.879.361s.371.537.371.889h11.25c.352 0 .648.12.889.361.24.241.361.534.361.88 0 .344-.124.64-.371.888-.247.247-.54.371-.879.371H7.5c0 .352-.124.648-.371.889-.247.24-.54.361-.879.361h-2.5c-.352 0-.648-.124-.889-.371a1.217 1.217 0 0 1-.361-.879H1.25c-.352 0-.648-.124-.889-.371A1.229 1.229 0 0 1 0 17.49c0-.345.12-.638.361-.879.241-.24.537-.361.889-.361zm1.25 2.5h2.5v-2.5h-2.5z"/></g></g></svg>