<svg xmlns="http://www.w3.org/2000/svg" width="23" height="20" viewBox="0 0 23 20"><g><g><path d="M21.42 5.818a2.144 2.144 0 0 1 1.448 2.45l-1.94 9.998A2.143 2.143 0 0 1 18.826 20H3.516c-.125 0-.25-.011-.37-.031A3.57 3.57 0 0 1 0 16.423L0 3.571A3.57 3.57 0 0 1 3.57 0h3.806c.464 0 .915.15 1.286.429l2.285 1.714h6.902a3.571 3.571 0 0 1 3.57 3.57zM3.57 1.428a2.143 2.143 0 0 0-2.142 2.143v12.852c.001.19.027.38.078.563L3.36 7.45a2.143 2.143 0 0 1 2.102-1.734h14.53v-.003a2.143 2.143 0 0 0-2.143-2.142h-7.14a.714.714 0 0 1-.428-.143L7.805 1.571a.714.714 0 0 0-.429-.143zm-.752 16.294a.714.714 0 0 0 .7.85h15.308a.714.714 0 0 0 .701-.579l1.938-9.998a.714.714 0 0 0-.7-.85H5.461a.714.714 0 0 0-.701.578z"/></g></g></svg>