<svg xmlns="http://www.w3.org/2000/svg" width="29" height="29" viewBox="0 0 29 29"><g><g><path fill="#c6c6c6" d="M21.409 4.924a2.656 2.656 0 1 1 0 5.312 2.656 2.656 0 0 1 0-5.312zm7.082 5.312A9.718 9.718 0 0 0 18.753.498c-5.379 0-9.738 4.36-9.738 9.738a9.73 9.73 0 0 0 .488 3.053L.551 22.24a1.328 1.328 0 0 0-.39.94v4.318c0 .734.595 1.328 1.329 1.328h6.197c.733 0 1.328-.594 1.328-1.328v-2.213h2.213c.733 0 1.328-.594 1.328-1.328v-2.213h2.06c.379 0 .74-.162.992-.446l1.328-1.494c.589.11 1.196.17 1.817.17 5.378 0 9.738-4.36 9.738-9.739z"/></g></g></svg>