<svg xmlns="http://www.w3.org/2000/svg" viewBox="0 0 81 97" width="81" height="97">
	<defs>
		<clipPath clipPathUnits="userSpaceOnUse" id="cp1">
			<path d="M-463 37L-543 37L-543 1L-463 1L-463 37Z" />
		</clipPath>
		<clipPath clipPathUnits="userSpaceOnUse" id="cp2">
			<path d="M-463 87C-463 92.52 -467.48 97 -473 97L-533 97C-538.52 97 -543 92.52 -543 87L-543 11C-543 5.48 -538.52 1 -533 1L-485 1L-463 23L-463 87Z" />
		</clipPath>
		<clipPath clipPathUnits="userSpaceOnUse" id="cp3">
			<path d="M-463 87C-463 92.52 -467.48 97 -473 97L-533 97C-538.52 97 -543 92.52 -543 87L-543 11C-543 5.48 -538.52 1 -533 1L-485 1L-463 23L-463 87Z" />
		</clipPath>
		<clipPath clipPathUnits="userSpaceOnUse" id="cp4">
			<path d="M-327 37L-407 37L-407 1L-327 1L-327 37Z" />
		</clipPath>
		<clipPath clipPathUnits="userSpaceOnUse" id="cp5">
			<path d="M-327 87C-327 92.52 -331.48 97 -337 97L-397 97C-402.52 97 -407 92.52 -407 87L-407 11C-407 5.48 -402.52 1 -397 1L-349 1L-327 23L-327 87Z" />
		</clipPath>
		<clipPath clipPathUnits="userSpaceOnUse" id="cp6">
			<path d="M-327 87C-327 92.52 -331.48 97 -337 97L-397 97C-402.52 97 -407 92.52 -407 87L-407 11C-407 5.48 -402.52 1 -397 1L-349 1L-327 23L-327 87Z" />
		</clipPath>
		<clipPath clipPathUnits="userSpaceOnUse" id="cp7">
			<path d="M-191 37L-271 37L-271 1L-191 1L-191 37Z" />
		</clipPath>
		<clipPath clipPathUnits="userSpaceOnUse" id="cp8">
			<path d="M-191 87C-191 92.52 -195.48 97 -201 97L-261 97C-266.52 97 -271 92.52 -271 87L-271 11C-271 5.48 -266.52 1 -261 1L-213 1L-191 23L-191 87Z" />
		</clipPath>
		<clipPath clipPathUnits="userSpaceOnUse" id="cp9">
			<path d="M-191 87C-191 92.52 -195.48 97 -201 97L-261 97C-266.52 97 -271 92.52 -271 87L-271 11C-271 5.48 -266.52 1 -261 1L-213 1L-191 23L-191 87Z" />
		</clipPath>
		<clipPath clipPathUnits="userSpaceOnUse" id="cp10">
			<path d="M-55 37L-135 37L-135 1L-55 1L-55 37Z" />
		</clipPath>
		<clipPath clipPathUnits="userSpaceOnUse" id="cp11">
			<path d="M-55 87C-55 92.52 -59.48 97 -65 97L-125 97C-130.52 97 -135 92.52 -135 87L-135 11C-135 5.48 -130.52 1 -125 1L-77 1L-55 23L-55 87Z" />
		</clipPath>
		<clipPath clipPathUnits="userSpaceOnUse" id="cp12">
			<path d="M-55 87C-55 92.52 -59.48 97 -65 97L-125 97C-130.52 97 -135 92.52 -135 87L-135 11C-135 5.48 -130.52 1 -125 1L-77 1L-55 23L-55 87Z" />
		</clipPath>
		<clipPath clipPathUnits="userSpaceOnUse" id="cp13">
			<path d="M81 37L1 37L1 1L81 1L81 37Z" />
		</clipPath>
		<clipPath clipPathUnits="userSpaceOnUse" id="cp14">
			<path d="M81 87C81 92.52 76.52 97 71 97L11 97C5.48 97 1 92.52 1 87L1 11C1 5.48 5.48 1 11 1L59 1L81 23L81 87Z" />
		</clipPath>
		<clipPath clipPathUnits="userSpaceOnUse" id="cp15">
			<path d="M81 87C81 92.52 76.52 97 71 97L11 97C5.48 97 1 92.52 1 87L1 11C1 5.48 5.48 1 11 1L59 1L81 23L81 87Z" />
		</clipPath>
		<clipPath clipPathUnits="userSpaceOnUse" id="cp16">
			<path d="M65 81L17 81L17 49L65 49L65 81Z" />
		</clipPath>
		<clipPath clipPathUnits="userSpaceOnUse" id="cp17">
			<path d="M217 37L137 37L137 1L217 1L217 37Z" />
		</clipPath>
		<clipPath clipPathUnits="userSpaceOnUse" id="cp18">
			<path d="M217 87C217 92.52 212.52 97 207 97L147 97C141.48 97 137 92.52 137 87L137 11C137 5.48 141.48 1 147 1L195 1L217 23L217 87Z" />
		</clipPath>
		<clipPath clipPathUnits="userSpaceOnUse" id="cp19">
			<path d="M217 87C217 92.52 212.52 97 207 97L147 97C141.48 97 137 92.52 137 87L137 11C137 5.48 141.48 1 147 1L195 1L217 23L217 87Z" />
		</clipPath>
		<clipPath clipPathUnits="userSpaceOnUse" id="cp20">
			<path d="M-463 173L-543 173L-543 137L-463 137L-463 173Z" />
		</clipPath>
		<clipPath clipPathUnits="userSpaceOnUse" id="cp21">
			<path d="M-463 223C-463 228.52 -467.48 233 -473 233L-533 233C-538.52 233 -543 228.52 -543 223L-543 147C-543 141.48 -538.52 137 -533 137L-485 137L-463 159L-463 223Z" />
		</clipPath>
		<clipPath clipPathUnits="userSpaceOnUse" id="cp22">
			<path d="M-463 223C-463 228.52 -467.48 233 -473 233L-533 233C-538.52 233 -543 228.52 -543 223L-543 147C-543 141.48 -538.52 137 -533 137L-485 137L-463 159L-463 223Z" />
		</clipPath>
		<clipPath clipPathUnits="userSpaceOnUse" id="cp23">
			<path d="M-327 173L-407 173L-407 137L-327 137L-327 173Z" />
		</clipPath>
		<clipPath clipPathUnits="userSpaceOnUse" id="cp24">
			<path d="M-327 223C-327 228.52 -331.48 233 -337 233L-397 233C-402.52 233 -407 228.52 -407 223L-407 147C-407 141.48 -402.52 137 -397 137L-349 137L-327 159L-327 223Z" />
		</clipPath>
		<clipPath clipPathUnits="userSpaceOnUse" id="cp25">
			<path d="M-327 223C-327 228.52 -331.48 233 -337 233L-397 233C-402.52 233 -407 228.52 -407 223L-407 147C-407 141.48 -402.52 137 -397 137L-349 137L-327 159L-327 223Z" />
		</clipPath>
		<clipPath clipPathUnits="userSpaceOnUse" id="cp26">
			<path d="M-191 173L-271 173L-271 137L-191 137L-191 173Z" />
		</clipPath>
		<clipPath clipPathUnits="userSpaceOnUse" id="cp27">
			<path d="M-191 223C-191 228.52 -195.48 233 -201 233L-261 233C-266.52 233 -271 228.52 -271 223L-271 147C-271 141.48 -266.52 137 -261 137L-213 137L-191 159L-191 223Z" />
		</clipPath>
		<clipPath clipPathUnits="userSpaceOnUse" id="cp28">
			<path d="M-191 223C-191 228.52 -195.48 233 -201 233L-261 233C-266.52 233 -271 228.52 -271 223L-271 147C-271 141.48 -266.52 137 -261 137L-213 137L-191 159L-191 223Z" />
		</clipPath>
		<clipPath clipPathUnits="userSpaceOnUse" id="cp29">
			<path d="M-55 173L-135 173L-135 137L-55 137L-55 173Z" />
		</clipPath>
		<clipPath clipPathUnits="userSpaceOnUse" id="cp30">
			<path d="M-55 223C-55 228.52 -59.48 233 -65 233L-125 233C-130.52 233 -135 228.52 -135 223L-135 147C-135 141.48 -130.52 137 -125 137L-77 137L-55 159L-55 223Z" />
		</clipPath>
		<clipPath clipPathUnits="userSpaceOnUse" id="cp31">
			<path d="M-55 223C-55 228.52 -59.48 233 -65 233L-125 233C-130.52 233 -135 228.52 -135 223L-135 147C-135 141.48 -130.52 137 -125 137L-77 137L-55 159L-55 223Z" />
		</clipPath>
		<clipPath clipPathUnits="userSpaceOnUse" id="cp32">
			<path d="M81 173L1 173L1 137L81 137L81 173Z" />
		</clipPath>
		<clipPath clipPathUnits="userSpaceOnUse" id="cp33">
			<path d="M81 223C81 228.52 76.52 233 71 233L11 233C5.48 233 1 228.52 1 223L1 147C1 141.48 5.48 137 11 137L59 137L81 159L81 223Z" />
		</clipPath>
		<clipPath clipPathUnits="userSpaceOnUse" id="cp34">
			<path d="M81 223C81 228.52 76.52 233 71 233L11 233C5.48 233 1 228.52 1 223L1 147C1 141.48 5.48 137 11 137L59 137L81 159L81 223Z" />
		</clipPath>
		<clipPath clipPathUnits="userSpaceOnUse" id="cp35">
			<path d="M217 173L137 173L137 137L217 137L217 173Z" />
		</clipPath>
		<clipPath clipPathUnits="userSpaceOnUse" id="cp36">
			<path d="M217 223C217 228.52 212.52 233 207 233L147 233C141.48 233 137 228.52 137 223L137 147C137 141.48 141.48 137 147 137L195 137L217 159L217 223Z" />
		</clipPath>
		<clipPath clipPathUnits="userSpaceOnUse" id="cp37">
			<path d="M217 223C217 228.52 212.52 233 207 233L147 233C141.48 233 137 228.52 137 223L137 147C137 141.48 141.48 137 147 137L195 137L217 159L217 223Z" />
		</clipPath>
		<clipPath clipPathUnits="userSpaceOnUse" id="cp38">
			<path d="M-191 309L-271 309L-271 273L-191 273L-191 309Z" />
		</clipPath>
		<clipPath clipPathUnits="userSpaceOnUse" id="cp39">
			<path d="M-191 359C-191 364.52 -195.48 369 -201 369L-261 369C-266.52 369 -271 364.52 -271 359L-271 283C-271 277.48 -266.52 273 -261 273L-213 273L-191 295L-191 359Z" />
		</clipPath>
		<clipPath clipPathUnits="userSpaceOnUse" id="cp40">
			<path d="M-191 359C-191 364.52 -195.48 369 -201 369L-261 369C-266.52 369 -271 364.52 -271 359L-271 283C-271 277.48 -266.52 273 -261 273L-213 273L-191 295L-191 359Z" />
		</clipPath>
		<clipPath clipPathUnits="userSpaceOnUse" id="cp41">
			<path d="M-463 309L-543 309L-543 273L-463 273L-463 309Z" />
		</clipPath>
		<clipPath clipPathUnits="userSpaceOnUse" id="cp42">
			<path d="M-463 359C-463 364.52 -467.48 369 -473 369L-533 369C-538.52 369 -543 364.52 -543 359L-543 283C-543 277.48 -538.52 273 -533 273L-485 273L-463 295L-463 359Z" />
		</clipPath>
		<clipPath clipPathUnits="userSpaceOnUse" id="cp43">
			<path d="M-463 359C-463 364.52 -467.48 369 -473 369L-533 369C-538.52 369 -543 364.52 -543 359L-543 283C-543 277.48 -538.52 273 -533 273L-485 273L-463 295L-463 359Z" />
		</clipPath>
		<clipPath clipPathUnits="userSpaceOnUse" id="cp44">
			<path d="M-327 309L-407 309L-407 273L-327 273L-327 309Z" />
		</clipPath>
		<clipPath clipPathUnits="userSpaceOnUse" id="cp45">
			<path d="M-327 359C-327 364.52 -331.48 369 -337 369L-397 369C-402.52 369 -407 364.52 -407 359L-407 283C-407 277.48 -402.52 273 -397 273L-349 273L-327 295L-327 359Z" />
		</clipPath>
		<clipPath clipPathUnits="userSpaceOnUse" id="cp46">
			<path d="M-327 359C-327 364.52 -331.48 369 -337 369L-397 369C-402.52 369 -407 364.52 -407 359L-407 283C-407 277.48 -402.52 273 -397 273L-349 273L-327 295L-327 359Z" />
		</clipPath>
		<clipPath clipPathUnits="userSpaceOnUse" id="cp47">
			<path d="M81 309L1 309L1 273L81 273L81 309Z" />
		</clipPath>
		<clipPath clipPathUnits="userSpaceOnUse" id="cp48">
			<path d="M81 359C81 364.52 76.52 369 71 369L11 369C5.48 369 1 364.52 1 359L1 283C1 277.48 5.48 273 11 273L59 273L81 295L81 359Z" />
		</clipPath>
		<clipPath clipPathUnits="userSpaceOnUse" id="cp49">
			<path d="M81 359C81 364.52 76.52 369 71 369L11 369C5.48 369 1 364.52 1 359L1 283C1 277.48 5.48 273 11 273L59 273L81 295L81 359Z" />
		</clipPath>
		<clipPath clipPathUnits="userSpaceOnUse" id="cp50">
			<path d="M-55 309L-135 309L-135 273L-55 273L-55 309Z" />
		</clipPath>
		<clipPath clipPathUnits="userSpaceOnUse" id="cp51">
			<path d="M-55 359C-55 364.52 -59.48 369 -65 369L-125 369C-130.52 369 -135 364.52 -135 359L-135 283C-135 277.48 -130.52 273 -125 273L-77 273L-55 295L-55 359Z" />
		</clipPath>
		<clipPath clipPathUnits="userSpaceOnUse" id="cp52">
			<path d="M-55 359C-55 364.52 -59.48 369 -65 369L-125 369C-130.52 369 -135 364.52 -135 359L-135 283C-135 277.48 -130.52 273 -125 273L-77 273L-55 295L-55 359Z" />
		</clipPath>
		<clipPath clipPathUnits="userSpaceOnUse" id="cp53">
			<path d="M217 309L137 309L137 273L217 273L217 309Z" />
		</clipPath>
		<clipPath clipPathUnits="userSpaceOnUse" id="cp54">
			<path d="M217 359C217 364.52 212.52 369 207 369L147 369C141.48 369 137 364.52 137 359L137 283C137 277.48 141.48 273 147 273L195 273L217 295L217 359Z" />
		</clipPath>
		<clipPath clipPathUnits="userSpaceOnUse" id="cp55">
			<path d="M217 359C217 364.52 212.52 369 207 369L147 369C141.48 369 137 364.52 137 359L137 283C137 277.48 141.48 273 147 273L195 273L217 295L217 359Z" />
		</clipPath>
	</defs>
	<style>
		tspan { white-space:pre }
		.shp0 { fill: #f6f6f6 } 
		.shp1 { fill: #e0e0e0 } 
		.shp2 { fill: #3098d8 } 
		.shp3 { fill: #2c8ac4 } 
		.shp4 { fill: #97cbec } 
		.shp5 { fill: #ffffff } 
		.shp6 { fill: #68ab46 } 
		.shp7 { fill: #5c973e } 
		.shp8 { fill: #b3d5a3 } 
		.shp9 { fill: #d8d8d8 } 
		.shp10 { fill: #f78852 } 
		.shp11 { fill: #e27140 } 
		.shp12 { fill: #fbc3a9 } 
		.shp13 { fill: #d84953 } 
		.shp14 { fill: #c4434c } 
		.shp15 { fill: #eca4a9 } 
		.shp16 { fill: #74bd71 } 
		.shp17 { fill: #6aad68 } 
		.shp18 { fill: #b9deb8 } 
		.shp19 { fill: #7bb2d1 } 
		.shp20 { fill: #679fb7 } 
		.shp21 { fill: #bdd8e8 } 
		.shp22 { fill: #f0a063 } 
		.shp23 { fill: #db8951 } 
		.shp24 { fill: #f8cfb1 } 
		.shp25 { fill: #277cb0 } 
		.shp26 { fill: #236e9c } 
		.shp27 { fill: #93bed8 } 
		.shp28 { fill: #5e68bd } 
		.shp29 { fill: #4d5599 } 
		.shp30 { fill: #aeb3de } 
		.shp31 { fill: #ebcfcf } 
		.shp32 { fill: #efbe2c } 
		.shp33 { fill: #e0ad1f } 
		.shp34 { fill: #f5d576 } 
		.shp35 { fill: #1a708a } 
		.shp36 { fill: #175f76 } 
		.shp37 { fill: #8db7c4 } 
		.shp38 { fill: #9a50a6 } 
		.shp39 { fill: #884792 } 
		.shp40 { fill: #cdacd2 } 
		.shp41 { fill: #549669 } 
		.shp42 { fill: #4c865f } 
		.shp43 { fill: #91b79e } 
		.shp44 { fill: #94bcd4 } 
		.shp45 { fill: #86aac0 } 
		.shp46 { fill: #cadde9 } 
		.shp47 { fill: #648091 } 
		.shp48 { fill: #566f7d } 
		.shp49 { fill: #8f9da6 } 
		.shp50 { fill: #2db7ed } 
		.shp51 { fill: #2aa6d9 } 
		.shp52 { fill: #b1e2f6 } 
		.shp53 { fill: #006bb8 } 
		.shp54 { fill: #015ea4 } 
		.shp55 { fill: #669ac1 } 
		.shp56 { fill: #e6e6e6 } 
		.shp57 { fill: #d2d2d2 } 
		.shp58 { fill: #efefef } 
	</style>
	<g id="Guides For Artboard">
	</g>
	<g id="Layer 2">
		<g id="&lt;Group&gt;">
			<path id="&lt;Path&gt;" class="shp0" d="M-533 96C-537.96 96 -542 91.96 -542 87L-542 11C-542 6.04 -537.96 2 -533 2L-485.42 2L-464 23.41L-464 87C-464 91.96 -468.04 96 -473 96L-533 96Z" />
			<path id="&lt;Compound Path&gt;" fill-rule="evenodd" class="shp1" d="M-463 23L-463 87C-463 92.52 -467.48 97 -473 97L-533 97C-538.52 97 -543 92.52 -543 87L-543 11C-543 5.48 -538.52 1 -533 1L-485 1L-463 23ZM-533 3C-537.41 3 -541 6.59 -541 11L-541 87C-541 91.41 -537.41 95 -533 95L-473 95C-468.59 95 -465 91.41 -465 87L-465 23.83L-485.83 3L-533 3Z" />
			<g id="&lt;Clip Group&gt;" clip-path="url(#cp1)">
				<path id="&lt;Path&gt;" class="shp2" d="M-533 96C-537.96 96 -542 91.96 -542 87L-542 11C-542 6.04 -537.96 2 -533 2L-485.42 2L-464 23.41L-464 87C-464 91.96 -468.04 96 -473 96L-533 96Z" />
				<path id="&lt;Compound Path&gt;" fill-rule="evenodd" class="shp3" d="M-463 23L-463 87C-463 92.52 -467.48 97 -473 97L-533 97C-538.52 97 -543 92.52 -543 87L-543 11C-543 5.48 -538.52 1 -533 1L-485 1L-463 23ZM-533 3C-537.41 3 -541 6.59 -541 11L-541 87C-541 91.41 -537.41 95 -533 95L-473 95C-468.59 95 -465 91.41 -465 87L-465 23.83L-485.83 3L-533 3Z" />
				<g id="&lt;Clip Group&gt;" clip-path="url(#cp2)">
					<path id="&lt;Path&gt;" class="shp3" d="M-482.13 20.01L-462.77 39.36L-462.77 20.01L-482.13 20.01Z" />
				</g>
				<g id="&lt;Clip Group&gt;" clip-path="url(#cp3)">
					<path id="&lt;Path&gt;" class="shp4" d="M-461 23L-475 23C-480.52 23 -485 18.52 -485 13L-485 -1L-461 -1L-461 23Z" />
				</g>
			</g>
			<g id="&lt;Group&gt;">
				<g id="&lt;Group&gt;">
					<path id="&lt;Compound Path&gt;" fill-rule="evenodd" class="shp5" d="M-531.88 13.46L-527.95 13.46C-526.26 13.46 -524.91 13.99 -523.89 15.05C-522.86 16.11 -522.35 17.51 -522.35 19.24C-522.35 20.98 -522.88 22.38 -523.93 23.43C-524.99 24.48 -526.4 25 -528.16 25L-531.88 25L-531.88 13.46ZM-529.38 15.64L-529.38 22.77L-528.39 22.77C-527.38 22.77 -526.54 22.49 -525.88 21.93C-525.22 21.38 -524.9 20.45 -524.9 19.15C-524.9 18.39 -525.05 17.72 -525.37 17.14C-525.69 16.56 -526.15 16.16 -526.75 15.95C-527.35 15.74 -527.92 15.64 -528.46 15.64L-529.38 15.64Z" />
					<path id="&lt;Compound Path&gt;" fill-rule="evenodd" class="shp5" d="M-520.78 19.23C-520.78 17.52 -520.22 16.11 -519.09 15C-517.96 13.89 -516.63 13.34 -515.08 13.34C-513.37 13.34 -511.95 13.89 -510.83 15.01C-509.71 16.13 -509.16 17.54 -509.16 19.24C-509.16 20.94 -509.71 22.34 -510.82 23.46C-511.92 24.58 -513.32 25.14 -515 25.14C-516.68 25.14 -518.07 24.58 -519.15 23.47C-520.24 22.36 -520.78 20.94 -520.78 19.23ZM-514.96 15.64C-515.93 15.62 -516.71 15.96 -517.3 16.64C-517.89 17.33 -518.19 18.21 -518.19 19.3C-518.19 20.32 -517.89 21.17 -517.29 21.84C-516.68 22.52 -515.92 22.86 -515 22.86C-514.03 22.86 -513.25 22.52 -512.66 21.86C-512.06 21.19 -511.77 20.32 -511.77 19.23C-511.77 18.15 -512.06 17.29 -512.64 16.64C-513.22 15.99 -514 15.66 -514.96 15.64Z" />
					<path id="&lt;Compound Path&gt;" class="shp5" d="M-501.74 13.3C-500.72 13.3 -499.63 13.56 -498.46 14.08L-498.46 16.89C-499.71 16.14 -500.8 15.76 -501.74 15.76C-502.67 15.76 -503.42 16.09 -503.99 16.73C-504.55 17.37 -504.83 18.24 -504.83 19.33C-504.83 20.36 -504.54 21.19 -503.94 21.8C-503.35 22.42 -502.56 22.73 -501.57 22.73C-500.7 22.73 -499.67 22.38 -498.46 21.69L-498.46 24.48C-499.81 24.93 -500.94 25.16 -501.84 25.16C-503.4 25.16 -504.71 24.59 -505.8 23.45C-506.88 22.31 -507.42 20.92 -507.42 19.28C-507.42 17.61 -506.87 16.2 -505.77 15.04C-504.66 13.88 -503.32 13.3 -501.74 13.3Z" />
				</g>
			</g>
			<path id="&lt;Path&gt;" class="shp0" d="M-397 96C-401.96 96 -406 91.96 -406 87L-406 11C-406 6.04 -401.96 2 -397 2L-349.41 2L-328 23.41L-328 87C-328 91.96 -332.04 96 -337 96L-397 96Z" />
			<path id="&lt;Compound Path&gt;" fill-rule="evenodd" class="shp1" d="M-327 23L-327 87C-327 92.52 -331.48 97 -337 97L-397 97C-402.52 97 -407 92.52 -407 87L-407 11C-407 5.48 -402.52 1 -397 1L-349 1L-327 23ZM-397 3C-401.41 3 -405 6.59 -405 11L-405 87C-405 91.41 -401.41 95 -397 95L-337 95C-332.59 95 -329 91.41 -329 87L-329 23.83L-349.83 3L-397 3Z" />
			<g id="&lt;Clip Group&gt;" clip-path="url(#cp4)">
				<path id="&lt;Path&gt;" class="shp6" d="M-397 96C-401.96 96 -406 91.96 -406 87L-406 11C-406 6.04 -401.96 2 -397 2L-349.41 2L-328 23.41L-328 87C-328 91.96 -332.04 96 -337 96L-397 96Z" />
				<path id="&lt;Compound Path&gt;" fill-rule="evenodd" class="shp7" d="M-327 23L-327 87C-327 92.52 -331.48 97 -337 97L-397 97C-402.52 97 -407 92.52 -407 87L-407 11C-407 5.48 -402.52 1 -397 1L-349 1L-327 23ZM-397 3C-401.41 3 -405 6.59 -405 11L-405 87C-405 91.41 -401.41 95 -397 95L-337 95C-332.59 95 -329 91.41 -329 87L-329 23.83L-349.83 3L-397 3Z" />
				<g id="&lt;Clip Group&gt;" clip-path="url(#cp5)">
					<path id="&lt;Path&gt;" class="shp7" d="M-346.13 20.01L-326.77 39.36L-326.77 20.01L-346.13 20.01Z" />
				</g>
				<g id="&lt;Clip Group&gt;" clip-path="url(#cp6)">
					<path id="&lt;Path&gt;" class="shp8" d="M-325 23L-339 23C-344.52 23 -349 18.52 -349 13L-349 -1L-325 -1L-325 23Z" />
				</g>
			</g>
			<path id="&lt;Compound Path&gt;" fill-rule="evenodd" class="shp1" d="M-339 49L-339 79L-395 79L-395 49L-339 49ZM-371 55L-371 61L-345 61L-345 55L-371 55ZM-389 55L-389 61L-375 61L-375 55L-389 55ZM-389 73L-375 73L-375 67L-389 67L-389 73ZM-345 73L-345 67L-371 67L-371 73L-345 73Z" />
			<g id="&lt;Group&gt;">
				<g id="&lt;Group&gt;">
					<path id="&lt;Compound Path&gt;" class="shp5" d="M-396.3 13.46L-393.65 13.46L-391.34 16.99L-388.94 13.46L-386.37 13.46L-390.02 18.95L-386 25L-388.57 25L-391.32 20.9L-394.05 25L-396.67 25L-392.62 18.95L-396.3 13.46Z" />
					<path id="&lt;Compound Path&gt;" class="shp5" d="M-384.35 13.46L-381.88 13.46L-381.88 22.51L-378.48 22.51L-378.48 25L-384.35 25L-384.35 13.46Z" />
					<path id="&lt;Compound Path&gt;" class="shp5" d="M-373.46 13.3C-372.19 13.3 -371.11 13.7 -370.25 14.51L-371.79 16.2C-372.61 15.72 -373.19 15.48 -373.55 15.48C-373.83 15.48 -374.06 15.59 -374.26 15.79C-374.46 16 -374.56 16.25 -374.56 16.54C-374.56 17.1 -374.05 17.6 -373.01 18.01C-372.26 18.34 -371.69 18.63 -371.3 18.89C-370.91 19.15 -370.59 19.51 -370.33 19.97C-370.07 20.44 -369.94 20.94 -369.94 21.48C-369.94 22.47 -370.34 23.33 -371.14 24.06C-371.94 24.79 -372.88 25.16 -373.97 25.16C-375.17 25.16 -376.35 24.6 -377.51 23.47L-375.88 21.56C-375.15 22.32 -374.46 22.7 -373.82 22.7C-373.52 22.7 -373.24 22.56 -372.96 22.3C-372.69 22.03 -372.55 21.75 -372.55 21.46C-372.55 20.86 -373.18 20.33 -374.46 19.87C-375.18 19.6 -375.7 19.36 -376 19.13C-376.31 18.89 -376.56 18.56 -376.77 18.11C-376.98 17.67 -377.08 17.22 -377.08 16.76C-377.08 15.73 -376.75 14.9 -376.08 14.26C-375.41 13.62 -374.54 13.3 -373.46 13.3Z" />
				</g>
			</g>
			<path id="&lt;Path&gt;" class="shp9" d="M-478 49L-527 49C-528.66 49 -530 50.34 -530 52C-530 53.66 -528.66 55 -527 55L-478 55C-476.34 55 -475 53.66 -475 52C-475 50.34 -476.34 49 -478 49Z" />
			<path id="&lt;Path&gt;" class="shp9" d="M-478 61L-527 61C-528.66 61 -530 62.34 -530 64C-530 65.66 -528.66 67 -527 67L-478 67C-476.34 67 -475 65.66 -475 64C-475 62.34 -476.34 61 -478 61Z" />
			<path id="&lt;Path&gt;" class="shp9" d="M-499 73L-527 73C-528.66 73 -530 74.34 -530 76C-530 77.66 -528.66 79 -527 79L-499 79C-497.34 79 -496 77.66 -496 76C-496 74.34 -497.34 73 -499 73Z" />
			<path id="&lt;Path&gt;" class="shp0" d="M-261 96C-265.96 96 -270 91.96 -270 87L-270 11C-270 6.04 -265.96 2 -261 2L-213.42 2L-192 23.41L-192 87C-192 91.96 -196.04 96 -201 96L-261 96Z" />
			<path id="&lt;Compound Path&gt;" fill-rule="evenodd" class="shp1" d="M-191 23L-191 87C-191 92.52 -195.48 97 -201 97L-261 97C-266.52 97 -271 92.52 -271 87L-271 11C-271 5.48 -266.52 1 -261 1L-213 1L-191 23ZM-261 3C-265.41 3 -269 6.59 -269 11L-269 87C-269 91.41 -265.41 95 -261 95L-201 95C-196.59 95 -193 91.41 -193 87L-193 23.83L-213.83 3L-261 3Z" />
			<g id="&lt;Clip Group&gt;" clip-path="url(#cp7)">
				<path id="&lt;Path&gt;" class="shp10" d="M-261 96C-265.96 96 -270 91.96 -270 87L-270 11C-270 6.04 -265.96 2 -261 2L-213.42 2L-192 23.41L-192 87C-192 91.96 -196.04 96 -201 96L-261 96Z" />
				<path id="&lt;Compound Path&gt;" fill-rule="evenodd" class="shp11" d="M-191 23L-191 87C-191 92.52 -195.48 97 -201 97L-261 97C-266.52 97 -271 92.52 -271 87L-271 11C-271 5.48 -266.52 1 -261 1L-213 1L-191 23ZM-261 3C-265.41 3 -269 6.59 -269 11L-269 87C-269 91.41 -265.41 95 -261 95L-201 95C-196.59 95 -193 91.41 -193 87L-193 23.83L-213.83 3L-261 3Z" />
				<g id="&lt;Clip Group&gt;" clip-path="url(#cp8)">
					<path id="&lt;Path&gt;" class="shp11" d="M-210.13 20.01L-190.77 39.36L-190.77 20.01L-210.13 20.01Z" />
				</g>
				<g id="&lt;Clip Group&gt;" clip-path="url(#cp9)">
					<path id="&lt;Path&gt;" class="shp12" d="M-189 23L-203 23C-208.52 23 -213 18.52 -213 13L-213 -1L-189 -1L-189 23Z" />
				</g>
			</g>
			<g id="&lt;Group&gt;">
				<g id="&lt;Group&gt;">
					<path id="&lt;Compound Path&gt;" fill-rule="evenodd" class="shp5" d="M-259.78 13.46L-255.83 13.46C-254.77 13.46 -253.92 13.77 -253.27 14.39C-252.62 15.01 -252.29 15.82 -252.29 16.83C-252.29 17.49 -252.45 18.12 -252.77 18.71C-253.09 19.31 -253.57 19.75 -254.21 20.04C-254.86 20.34 -255.41 20.49 -255.87 20.5L-257.31 20.54L-257.31 25L-259.78 25L-259.78 13.46ZM-257.34 15.53L-257.34 18.49L-256.38 18.49C-255.96 18.49 -255.61 18.34 -255.31 18.04C-255.01 17.74 -254.87 17.39 -254.87 16.98C-254.87 16.51 -255.03 16.14 -255.37 15.89C-255.7 15.63 -256.17 15.5 -256.79 15.5L-257.34 15.53Z" />
					<path id="&lt;Compound Path&gt;" fill-rule="evenodd" class="shp5" d="M-250.22 13.46L-246.28 13.46C-245.22 13.46 -244.36 13.77 -243.71 14.39C-243.06 15.01 -242.74 15.82 -242.74 16.83C-242.74 17.49 -242.9 18.12 -243.21 18.71C-243.54 19.31 -244.02 19.75 -244.66 20.04C-245.31 20.34 -245.86 20.49 -246.31 20.5L-247.75 20.54L-247.75 25L-250.22 25L-250.22 13.46ZM-247.79 15.53L-247.79 18.49L-246.82 18.49C-246.41 18.49 -246.05 18.34 -245.76 18.04C-245.46 17.74 -245.31 17.39 -245.31 16.98C-245.31 16.51 -245.48 16.14 -245.81 15.89C-246.15 15.63 -246.62 15.5 -247.24 15.5L-247.79 15.53Z" />
					<path id="&lt;Compound Path&gt;" class="shp5" d="M-241.51 13.46L-233.75 13.46L-233.75 15.91L-236.4 15.91L-236.4 25L-238.89 25L-238.89 15.91L-241.51 15.91L-241.51 13.46Z" />
				</g>
			</g>
			<path id="&lt;Path&gt;" class="shp1" d="M-233 81C-240.73 81 -247 74.73 -247 67C-247 59.95 -241.78 54.13 -235 53.16L-235 47.1C-245.11 48.1 -253 56.63 -253 67C-253 78.05 -244.05 87 -233 87C-222.63 87 -214.1 79.11 -213.1 69L-219.16 69C-220.13 75.78 -225.95 81 -233 81Z" />
			<path id="&lt;Path&gt;" class="shp1" d="M-231 65L-231 53.16C-231.66 53.07 -232.32 53 -233 53C-233.68 53 -234.34 53.07 -235 53.16L-235 65L-231 65Z" />
			<path id="&lt;Path&gt;" class="shp1" d="M-233 53C-232.32 53 -231.66 53.07 -231 53.16L-231 47.1C-231.66 47.04 -232.33 47 -233 47C-233.67 47 -234.34 47.04 -235 47.1L-235 53.16C-234.34 53.07 -233.68 53 -233 53Z" />
			<path id="&lt;Path&gt;" class="shp1" d="M-231 69L-219.16 69C-219.07 68.34 -219 67.68 -219 67C-219 66.32 -219.07 65.66 -219.16 65L-231 65L-231 69Z" />
			<path id="&lt;Path&gt;" class="shp1" d="M-213.1 65L-219.16 65C-219.07 65.66 -219 66.32 -219 67C-219 67.68 -219.07 68.34 -219.16 69L-213.1 69C-213.04 68.34 -213 67.67 -213 67C-213 66.33 -213.04 65.66 -213.1 65Z" />
			<path id="&lt;Path&gt;" class="shp1" d="M-235 69L-231 69L-231 65L-235 65L-235 69Z" />
			<path id="&lt;Compound Path&gt;" fill-rule="evenodd" class="shp1" d="M-207 61L-227 61L-227 41C-225.63 41 -224.29 41.14 -223 41.4C-215.16 42.99 -208.99 49.16 -207.4 57C-207.14 58.29 -207 59.63 -207 61ZM-213.59 57C-214.93 52.49 -218.49 48.93 -223 47.59L-223 57L-213.59 57Z" />
			<path id="&lt;Path&gt;" class="shp0" d="M-125 96C-129.96 96 -134 91.96 -134 87L-134 11C-134 6.04 -129.96 2 -125 2L-77.41 2L-56 23.41L-56 87C-56 91.96 -60.04 96 -65 96L-125 96Z" />
			<path id="&lt;Compound Path&gt;" fill-rule="evenodd" class="shp1" d="M-55 23L-55 87C-55 92.52 -59.48 97 -65 97L-125 97C-130.52 97 -135 92.52 -135 87L-135 11C-135 5.48 -130.52 1 -125 1L-77 1L-55 23ZM-125 3C-129.41 3 -133 6.59 -133 11L-133 87C-133 91.41 -129.41 95 -125 95L-65 95C-60.59 95 -57 91.41 -57 87L-57 23.83L-77.83 3L-125 3Z" />
			<path id="&lt;Path&gt;" class="shp9" d="M-71.5 61L-98.5 61C-100.16 61 -101.5 62.34 -101.5 64C-101.5 65.66 -100.16 67 -98.5 67L-71.5 67C-69.84 67 -68.5 65.66 -68.5 64C-68.5 62.34 -69.84 61 -71.5 61Z" />
			<path id="&lt;Path&gt;" class="shp9" d="M-71.5 73L-98.5 73C-100.16 73 -101.5 74.34 -101.5 76C-101.5 77.66 -100.16 79 -98.5 79L-71.5 79C-69.84 79 -68.5 77.66 -68.5 76C-68.5 74.34 -69.84 73 -71.5 73Z" />
			<path id="&lt;Path&gt;" class="shp9" d="M-70.5 49L-119.5 49C-121.16 49 -122.5 50.34 -122.5 52C-122.5 53.66 -121.16 55 -119.5 55L-70.5 55C-68.84 55 -67.5 53.66 -67.5 52C-67.5 50.34 -68.84 49 -70.5 49Z" />
			<g id="&lt;Clip Group&gt;" clip-path="url(#cp10)">
				<path id="&lt;Path&gt;" class="shp13" d="M-125 96C-129.96 96 -134 91.96 -134 87L-134 11C-134 6.04 -129.96 2 -125 2L-77.41 2L-56 23.41L-56 87C-56 91.96 -60.04 96 -65 96L-125 96Z" />
				<path id="&lt;Compound Path&gt;" fill-rule="evenodd" class="shp14" d="M-55 23L-55 87C-55 92.52 -59.48 97 -65 97L-125 97C-130.52 97 -135 92.52 -135 87L-135 11C-135 5.48 -130.52 1 -125 1L-77 1L-55 23ZM-125 3C-129.41 3 -133 6.59 -133 11L-133 87C-133 91.41 -129.41 95 -125 95L-65 95C-60.59 95 -57 91.41 -57 87L-57 23.83L-77.83 3L-125 3Z" />
				<g id="&lt;Clip Group&gt;" clip-path="url(#cp11)">
					<path id="&lt;Path&gt;" class="shp14" d="M-74.13 20.01L-54.77 39.36L-54.77 20.01L-74.13 20.01Z" />
				</g>
				<g id="&lt;Clip Group&gt;" clip-path="url(#cp12)">
					<path id="&lt;Path&gt;" class="shp15" d="M-53 23L-67 23C-72.52 23 -77 18.52 -77 13L-77 -1L-53 -1L-53 23Z" />
				</g>
			</g>
			<g id="&lt;Group&gt;">
				<g id="&lt;Group&gt;">
					<path id="&lt;Compound Path&gt;" fill-rule="evenodd" class="shp5" d="M-123.78 13.46L-119.83 13.46C-118.77 13.46 -117.92 13.77 -117.27 14.39C-116.62 15.01 -116.29 15.82 -116.29 16.83C-116.29 17.49 -116.45 18.12 -116.77 18.71C-117.09 19.31 -117.57 19.75 -118.21 20.04C-118.86 20.34 -119.41 20.49 -119.87 20.5L-121.31 20.54L-121.31 25L-123.78 25L-123.78 13.46ZM-121.34 15.53L-121.34 18.49L-120.38 18.49C-119.96 18.49 -119.61 18.34 -119.31 18.04C-119.01 17.74 -118.87 17.39 -118.87 16.98C-118.87 16.51 -119.03 16.14 -119.37 15.89C-119.7 15.63 -120.18 15.5 -120.79 15.5L-121.34 15.53Z" />
					<path id="&lt;Compound Path&gt;" fill-rule="evenodd" class="shp5" d="M-114.33 13.46L-110.39 13.46C-108.71 13.46 -107.36 13.99 -106.33 15.05C-105.31 16.11 -104.79 17.51 -104.79 19.24C-104.79 20.98 -105.32 22.38 -106.38 23.43C-107.44 24.48 -108.85 25 -110.6 25L-114.33 25L-114.33 13.46ZM-111.82 15.64L-111.82 22.77L-110.84 22.77C-109.82 22.77 -108.98 22.49 -108.33 21.93C-107.67 21.38 -107.34 20.45 -107.34 19.15C-107.34 18.39 -107.5 17.72 -107.82 17.14C-108.13 16.56 -108.59 16.16 -109.19 15.95C-109.79 15.74 -110.37 15.64 -110.91 15.64L-111.82 15.64Z" />
					<path id="&lt;Compound Path&gt;" class="shp5" d="M-102.83 13.46L-96.34 13.46L-96.34 15.69L-100.36 15.69L-100.36 18.05L-96.34 18.05L-96.34 20.3L-100.35 20.3L-100.35 25L-102.83 25L-102.83 13.46Z" />
				</g>
			</g>
			<path id="&lt;Path&gt;" class="shp1" d="M-107 76C-107 77.66 -108.34 79 -110 79L-120 79C-121.66 79 -123 77.66 -123 76L-123 64C-123 62.34 -121.66 61 -120 61L-110 61C-108.34 61 -107 62.34 -107 64L-107 76Z" />
			<path id="&lt;Path&gt;" class="shp0" d="M11 96C6.04 96 2 91.96 2 87L2 11C2 6.04 6.04 2 11 2L58.59 2L80 23.41L80 87C80 91.96 75.96 96 71 96L11 96Z" />
			<path id="&lt;Compound Path&gt;" fill-rule="evenodd" class="shp1" d="M81 23L81 87C81 92.52 76.52 97 71 97L11 97C5.48 97 1 92.52 1 87L1 11C1 5.48 5.48 1 11 1L59 1L81 23ZM11 3C6.59 3 3 6.59 3 11L3 87C3 91.41 6.59 95 11 95L71 95C75.41 95 79 91.41 79 87L79 23.83L58.17 3L11 3Z" />
			<g id="&lt;Clip Group&gt;" clip-path="url(#cp13)">
				<path id="&lt;Path&gt;" class="shp16" d="M11 96C6.04 96 2 91.96 2 87L2 11C2 6.04 6.04 2 11 2L58.59 2L80 23.41L80 87C80 91.96 75.96 96 71 96L11 96Z" />
				<path id="&lt;Compound Path&gt;" fill-rule="evenodd" class="shp17" d="M81 23L81 87C81 92.52 76.52 97 71 97L11 97C5.48 97 1 92.52 1 87L1 11C1 5.48 5.48 1 11 1L59 1L81 23ZM11 3C6.59 3 3 6.59 3 11L3 87C3 91.41 6.59 95 11 95L71 95C75.41 95 79 91.41 79 87L79 23.83L58.17 3L11 3Z" />
				<g id="&lt;Clip Group&gt;" clip-path="url(#cp14)">
					<path id="&lt;Path&gt;" class="shp17" d="M61.87 20.01L81.23 39.36L81.23 20.01L61.87 20.01Z" />
				</g>
				<g id="&lt;Clip Group&gt;" clip-path="url(#cp15)">
					<path id="&lt;Path&gt;" class="shp18" d="M83 23L69 23C63.48 23 59 18.52 59 13L59 -1L83 -1L83 23Z" />
				</g>
			</g>
			<g id="&lt;Group&gt;">
				<g id="&lt;Group&gt;">
					<path id="&lt;Compound Path&gt;" class="shp5" d="M15.05 13.46L17.51 13.46L17.51 21.63C17.51 22.69 17.22 23.55 16.63 24.19C16.05 24.84 15.28 25.16 14.33 25.16C13.64 25.16 13.03 24.96 12.49 24.55C11.95 24.15 11.53 23.53 11.24 22.7L13.05 21.33L13.05 21.36C13.06 21.37 13.12 21.5 13.22 21.75C13.33 22 13.46 22.23 13.62 22.43C13.79 22.63 13.96 22.73 14.15 22.73C14.42 22.73 14.64 22.62 14.8 22.39C14.97 22.16 15.05 21.86 15.05 21.48L15.05 13.46Z" />
					<path id="&lt;Compound Path&gt;" fill-rule="evenodd" class="shp5" d="M19.9 13.46L23.85 13.46C24.91 13.46 25.77 13.77 26.42 14.39C27.07 15.01 27.39 15.82 27.39 16.83C27.39 17.49 27.23 18.12 26.91 18.71C26.59 19.31 26.11 19.75 25.47 20.04C24.82 20.34 24.27 20.49 23.81 20.5L22.37 20.54L22.37 25L19.9 25L19.9 13.46ZM22.34 15.53L22.34 18.49L23.3 18.49C23.72 18.49 24.08 18.34 24.37 18.04C24.67 17.74 24.82 17.39 24.82 16.98C24.82 16.51 24.65 16.14 24.32 15.89C23.98 15.63 23.51 15.5 22.89 15.5L22.34 15.53Z" />
					<path id="&lt;Compound Path&gt;" class="shp5" d="M34.54 13.3C36.56 13.3 38.12 14.19 39.21 15.96L37.56 17.51C37.21 16.91 36.79 16.47 36.28 16.17C35.77 15.88 35.23 15.73 34.68 15.73C33.78 15.73 32.99 16.07 32.33 16.76C31.66 17.44 31.33 18.25 31.33 19.18C31.33 20.17 31.66 21.01 32.33 21.7C32.99 22.39 33.79 22.73 34.73 22.73C35.24 22.73 35.73 22.6 36.2 22.35C36.67 22.09 37.05 21.6 37.34 20.9L34.61 20.9L34.61 18.65L39.93 18.65L39.93 20.14C39.93 20.91 39.67 21.73 39.14 22.61C38.62 23.5 37.92 24.14 37.06 24.55C36.2 24.95 35.33 25.16 34.45 25.16C32.86 25.16 31.51 24.58 30.41 23.43C29.32 22.27 28.77 20.85 28.77 19.15C28.77 17.54 29.34 16.16 30.46 15.02C31.59 13.87 32.95 13.3 34.54 13.3Z" />
				</g>
			</g>
			<path id="&lt;Compound Path&gt;" fill-rule="evenodd" class="shp1" d="M65 81L17 81L17 49L65 49L65 81ZM23 55L23 75L59 75L59 55L23 55Z" />
			<g id="&lt;Clip Group&gt;" clip-path="url(#cp16)">
				<path id="&lt;Path&gt;" class="shp1" d="M69 84.34L13 84.34L13 78.34L19 78.34L27.04 68.69C27.56 68.07 28.3 67.68 29.1 67.62C29.91 67.55 30.7 67.81 31.31 68.34L37.38 73.6C37.8 73.96 38.35 74.13 38.9 74.07C39.45 74.01 39.96 73.73 40.29 73.28L48.37 62.51C48.96 61.72 49.91 61.27 50.9 61.32C51.89 61.36 52.79 61.89 53.31 62.73L63 78.34L69 78.34L69 84.34Z" />
			</g>
			<path id="&lt;Path&gt;" class="shp1" d="M31 61C31 58.79 32.79 57 35 57C37.21 57 39 58.79 39 61C39 63.21 37.21 65 35 65C32.79 65 31 63.21 31 61Z" />
			<path id="&lt;Path&gt;" class="shp0" d="M147 96C142.04 96 138 91.96 138 87L138 11C138 6.04 142.04 2 147 2L194.59 2L216 23.41L216 87C216 91.96 211.96 96 207 96L147 96Z" />
			<path id="&lt;Compound Path&gt;" fill-rule="evenodd" class="shp1" d="M217 23L217 87C217 92.52 212.52 97 207 97L147 97C141.48 97 137 92.52 137 87L137 11C137 5.48 141.48 1 147 1L195 1L217 23ZM147 3C142.59 3 139 6.59 139 11L139 87C139 91.41 142.59 95 147 95L207 95C211.41 95 215 91.41 215 87L215 23.83L194.17 3L147 3Z" />
			<g id="&lt;Clip Group&gt;" clip-path="url(#cp17)">
				<path id="&lt;Path&gt;" class="shp19" d="M147 96C142.04 96 138 91.96 138 87L138 11C138 6.04 142.04 2 147 2L194.59 2L216 23.41L216 87C216 91.96 211.96 96 207 96L147 96Z" />
				<path id="&lt;Compound Path&gt;" fill-rule="evenodd" class="shp20" d="M217 23L217 87C217 92.52 212.52 97 207 97L147 97C141.48 97 137 92.52 137 87L137 11C137 5.48 141.48 1 147 1L195 1L217 23ZM147 3C142.59 3 139 6.59 139 11L139 87C139 91.41 142.59 95 147 95L207 95C211.41 95 215 91.41 215 87L215 23.83L194.17 3L147 3Z" />
				<g id="&lt;Clip Group&gt;" clip-path="url(#cp18)">
					<path id="&lt;Path&gt;" class="shp20" d="M197.87 20.01L217.23 39.36L217.23 20.01L197.87 20.01Z" />
				</g>
				<g id="&lt;Clip Group&gt;" clip-path="url(#cp19)">
					<path id="&lt;Path&gt;" class="shp21" d="M219 23L205 23C199.48 23 195 18.52 195 13L195 -1L219 -1L219 23Z" />
				</g>
			</g>
			<g id="&lt;Group&gt;">
				<g id="&lt;Group&gt;">
					<path id="&lt;Compound Path&gt;" fill-rule="evenodd" class="shp5" d="M148.22 13.46L152.17 13.46C153.23 13.46 154.08 13.77 154.73 14.39C155.38 15.01 155.71 15.82 155.71 16.83C155.71 17.49 155.55 18.12 155.23 18.71C154.91 19.31 154.43 19.75 153.79 20.04C153.14 20.34 152.59 20.49 152.13 20.5L150.69 20.54L150.69 25L148.22 25L148.22 13.46ZM150.66 15.53L150.66 18.49L151.62 18.49C152.04 18.49 152.39 18.34 152.69 18.04C152.99 17.74 153.13 17.39 153.13 16.98C153.13 16.51 152.97 16.14 152.63 15.89C152.3 15.63 151.82 15.5 151.21 15.5L150.66 15.53Z" />
					<path id="&lt;Compound Path&gt;" class="shp5" d="M165.35 13.46L167.79 13.46L167.79 25L165.36 25L160.09 17.53L160.09 25L157.6 25L157.6 13.46L160.06 13.46L165.35 20.88L165.35 13.46Z" />
					<path id="&lt;Compound Path&gt;" class="shp5" d="M175.24 13.3C177.27 13.3 178.82 14.19 179.91 15.96L178.26 17.51C177.92 16.91 177.49 16.47 176.98 16.17C176.47 15.88 175.94 15.73 175.38 15.73C174.48 15.73 173.69 16.07 173.03 16.76C172.36 17.44 172.03 18.25 172.03 19.18C172.03 20.17 172.36 21.01 173.03 21.7C173.69 22.39 174.49 22.73 175.43 22.73C175.94 22.73 176.43 22.6 176.9 22.35C177.38 22.09 177.76 21.6 178.04 20.9L175.31 20.9L175.31 18.65L180.64 18.65L180.64 20.14C180.64 20.91 180.37 21.73 179.84 22.61C179.32 23.5 178.62 24.14 177.76 24.55C176.9 24.95 176.03 25.16 175.15 25.16C173.56 25.16 172.21 24.58 171.12 23.43C170.02 22.27 169.47 20.85 169.47 19.15C169.47 17.54 170.04 16.16 171.17 15.02C172.29 13.87 173.65 13.3 175.24 13.3Z" />
				</g>
			</g>
			<path id="&lt;Path&gt;" class="shp1" d="M159 53L153 53L153 47L159 47L159 53Z" />
			<path id="&lt;Path&gt;" class="shp1" d="M171 53L165 53L165 47L171 47L171 53Z" />
			<path id="&lt;Path&gt;" class="shp1" d="M183 53L177 53L177 47L183 47L183 53Z" />
			<path id="&lt;Path&gt;" class="shp1" d="M195 53L189 53L189 47L195 47L195 53Z" />
			<path id="&lt;Path&gt;" class="shp1" d="M207 53L201 53L201 47L207 47L207 53Z" />
			<path id="&lt;Path&gt;" class="shp1" d="M159 65L153 65L153 59L159 59L159 65Z" />
			<path id="&lt;Path&gt;" class="shp1" d="M171 65L165 65L165 59L171 59L171 65Z" />
			<path id="&lt;Path&gt;" class="shp1" d="M183 65L177 65L177 59L183 59L183 65Z" />
			<path id="&lt;Path&gt;" class="shp1" d="M195 65L189 65L189 59L195 59L195 65Z" />
			<path id="&lt;Path&gt;" class="shp1" d="M207 65L201 65L201 59L207 59L207 65Z" />
			<path id="&lt;Path&gt;" class="shp1" d="M153 59L147 59L147 53L153 53L153 59Z" />
			<path id="&lt;Path&gt;" class="shp1" d="M165 59L159 59L159 53L165 53L165 59Z" />
			<path id="&lt;Path&gt;" class="shp1" d="M177 59L171 59L171 53L177 53L177 59Z" />
			<path id="&lt;Path&gt;" class="shp1" d="M189 59L183 59L183 53L189 53L189 59Z" />
			<path id="&lt;Path&gt;" class="shp1" d="M201 59L195 59L195 53L201 53L201 59Z" />
			<path id="&lt;Path&gt;" class="shp1" d="M159 77L153 77L153 71L159 71L159 77Z" />
			<path id="&lt;Path&gt;" class="shp1" d="M171 77L165 77L165 71L171 71L171 77Z" />
			<path id="&lt;Path&gt;" class="shp1" d="M183 77L177 77L177 71L183 71L183 77Z" />
			<path id="&lt;Path&gt;" class="shp1" d="M195 77L189 77L189 71L195 71L195 77Z" />
			<path id="&lt;Path&gt;" class="shp1" d="M207 77L201 77L201 71L207 71L207 77Z" />
			<path id="&lt;Path&gt;" class="shp1" d="M153 71L147 71L147 65L153 65L153 71Z" />
			<path id="&lt;Path&gt;" class="shp1" d="M165 71L159 71L159 65L165 65L165 71Z" />
			<path id="&lt;Path&gt;" class="shp1" d="M177 71L171 71L171 65L177 65L177 71Z" />
			<path id="&lt;Path&gt;" class="shp1" d="M189 71L183 71L183 65L189 65L189 71Z" />
			<path id="&lt;Path&gt;" class="shp1" d="M201 71L195 71L195 65L201 65L201 71Z" />
			<path id="&lt;Path&gt;" class="shp1" d="M153 83L147 83L147 77L153 77L153 83Z" />
			<path id="&lt;Path&gt;" class="shp1" d="M165 83L159 83L159 77L165 77L165 83Z" />
			<path id="&lt;Path&gt;" class="shp1" d="M177 83L171 83L171 77L177 77L177 83Z" />
			<path id="&lt;Path&gt;" class="shp1" d="M189 83L183 83L183 77L189 77L189 83Z" />
			<path id="&lt;Path&gt;" class="shp1" d="M201 83L195 83L195 77L201 77L201 83Z" />
			<path id="&lt;Path&gt;" class="shp0" d="M-533 232C-537.96 232 -542 227.96 -542 223L-542 147C-542 142.04 -537.96 138 -533 138L-485.42 138L-464 159.41L-464 223C-464 227.96 -468.04 232 -473 232L-533 232Z" />
			<path id="&lt;Compound Path&gt;" fill-rule="evenodd" class="shp1" d="M-463 159L-463 223C-463 228.52 -467.48 233 -473 233L-533 233C-538.52 233 -543 228.52 -543 223L-543 147C-543 141.48 -538.52 137 -533 137L-485 137L-463 159ZM-533 139C-537.41 139 -541 142.59 -541 147L-541 223C-541 227.41 -537.41 231 -533 231L-473 231C-468.59 231 -465 227.41 -465 223L-465 159.83L-485.83 139L-533 139Z" />
			<g id="&lt;Clip Group&gt;" clip-path="url(#cp20)">
				<path id="&lt;Path&gt;" class="shp22" d="M-533 232C-537.96 232 -542 227.96 -542 223L-542 147C-542 142.04 -537.96 138 -533 138L-485.42 138L-464 159.41L-464 223C-464 227.96 -468.04 232 -473 232L-533 232Z" />
				<path id="&lt;Compound Path&gt;" fill-rule="evenodd" class="shp23" d="M-463 159L-463 223C-463 228.52 -467.48 233 -473 233L-533 233C-538.52 233 -543 228.52 -543 223L-543 147C-543 141.48 -538.52 137 -533 137L-485 137L-463 159ZM-533 139C-537.41 139 -541 142.59 -541 147L-541 223C-541 227.41 -537.41 231 -533 231L-473 231C-468.59 231 -465 227.41 -465 223L-465 159.83L-485.83 139L-533 139Z" />
				<g id="&lt;Clip Group&gt;" clip-path="url(#cp21)">
					<path id="&lt;Path&gt;" class="shp23" d="M-482.13 156.01L-462.77 175.36L-462.77 156.01L-482.13 156.01Z" />
				</g>
				<g id="&lt;Clip Group&gt;" clip-path="url(#cp22)">
					<path id="&lt;Path&gt;" class="shp24" d="M-461 159L-475 159C-480.52 159 -485 154.52 -485 149L-485 135L-461 135L-461 159Z" />
				</g>
			</g>
			<g id="&lt;Group&gt;">
				<g id="&lt;Group&gt;">
					<path id="&lt;Compound Path&gt;" class="shp5" d="M-531.81 149.46L-525.32 149.46L-525.32 151.75L-529.33 151.75L-529.33 154.07L-525.32 154.07L-525.32 156.32L-529.33 156.32L-529.33 158.71L-525.32 158.71L-525.32 161L-531.81 161L-531.81 149.46Z" />
					<path id="&lt;Compound Path&gt;" fill-rule="evenodd" class="shp5" d="M-523.16 149.46L-519.21 149.46C-518.15 149.46 -517.29 149.77 -516.64 150.39C-515.99 151.01 -515.67 151.82 -515.67 152.83C-515.67 153.49 -515.83 154.12 -516.15 154.71C-516.47 155.31 -516.95 155.75 -517.59 156.04C-518.24 156.34 -518.79 156.49 -519.25 156.5L-520.69 156.54L-520.69 161L-523.16 161L-523.16 149.46ZM-520.72 151.53L-520.72 154.49L-519.75 154.49C-519.34 154.49 -518.98 154.34 -518.69 154.04C-518.39 153.74 -518.24 153.39 -518.24 152.98C-518.24 152.51 -518.41 152.14 -518.74 151.89C-519.08 151.63 -519.55 151.5 -520.17 151.5L-520.72 151.53Z" />
					<path id="&lt;Compound Path&gt;" class="shp5" d="M-510.39 149.3C-509.12 149.3 -508.05 149.7 -507.18 150.51L-508.72 152.2C-509.54 151.72 -510.13 151.48 -510.48 151.48C-510.76 151.48 -511 151.59 -511.19 151.79C-511.39 152 -511.49 152.25 -511.49 152.54C-511.49 153.1 -510.98 153.6 -509.95 154.01C-509.19 154.34 -508.62 154.63 -508.23 154.89C-507.85 155.15 -507.52 155.51 -507.26 155.97C-507 156.44 -506.87 156.94 -506.87 157.48C-506.87 158.47 -507.27 159.33 -508.07 160.06C-508.87 160.79 -509.81 161.16 -510.9 161.16C-512.1 161.16 -513.28 160.6 -514.45 159.47L-512.81 157.56C-512.08 158.32 -511.39 158.7 -510.75 158.7C-510.46 158.7 -510.17 158.56 -509.89 158.3C-509.62 158.03 -509.48 157.75 -509.48 157.46C-509.48 156.86 -510.12 156.33 -511.39 155.87C-512.11 155.6 -512.63 155.36 -512.93 155.13C-513.24 154.89 -513.5 154.56 -513.7 154.11C-513.91 153.67 -514.02 153.22 -514.02 152.76C-514.02 151.73 -513.68 150.9 -513.01 150.26C-512.35 149.62 -511.47 149.3 -510.39 149.3Z" />
				</g>
			</g>
			<path id="&lt;Path&gt;" class="shp1" d="M-483 189L-523 189L-523 187L-483 187L-483 189Z" />
			<path id="&lt;Path&gt;" class="shp0" d="M-506 190L-506 184L-500 184L-500 190L-506 190Z" />
			<path id="&lt;Compound Path&gt;" fill-rule="evenodd" class="shp1" d="M-499 191L-507 191L-507 183L-499 183L-499 191ZM-505 185L-505 189L-501 189L-501 185L-505 185Z" />
			<path id="&lt;Path&gt;" class="shp1" d="M-503 189C-516.26 189 -527 199.75 -527 213C-527 213.68 -526.96 214.34 -526.9 215L-522.9 215C-522.96 214.34 -523 213.68 -523 213C-523 201.97 -514.03 193 -503 193C-491.97 193 -483 201.97 -483 213C-483 213.68 -483.04 214.34 -483.1 215L-479.1 215C-479.05 214.34 -479 213.68 -479 213C-479 199.75 -489.75 189 -503 189Z" />
			<path id="&lt;Path&gt;" class="shp1" d="M-481 191L-487 191L-487 185L-481 185L-481 191Z" />
			<path id="&lt;Path&gt;" class="shp1" d="M-519 191L-525 191L-525 185L-519 185L-519 191Z" />
			<path id="&lt;Path&gt;" class="shp0" d="M-397 232C-401.96 232 -406 227.96 -406 223L-406 147C-406 142.04 -401.96 138 -397 138L-349.41 138L-328 159.41L-328 223C-328 227.96 -332.04 232 -337 232L-397 232Z" />
			<path id="&lt;Compound Path&gt;" fill-rule="evenodd" class="shp1" d="M-327 159L-327 223C-327 228.52 -331.48 233 -337 233L-397 233C-402.52 233 -407 228.52 -407 223L-407 147C-407 141.48 -402.52 137 -397 137L-349 137L-327 159ZM-397 139C-401.41 139 -405 142.59 -405 147L-405 223C-405 227.41 -401.41 231 -397 231L-337 231C-332.59 231 -329 227.41 -329 223L-329 159.83L-349.83 139L-397 139Z" />
			<g id="&lt;Clip Group&gt;" clip-path="url(#cp23)">
				<path id="&lt;Path&gt;" class="shp25" d="M-397 232C-401.96 232 -406 227.96 -406 223L-406 147C-406 142.04 -401.96 138 -397 138L-349.41 138L-328 159.41L-328 223C-328 227.96 -332.04 232 -337 232L-397 232Z" />
				<path id="&lt;Compound Path&gt;" fill-rule="evenodd" class="shp26" d="M-327 159L-327 223C-327 228.52 -331.48 233 -337 233L-397 233C-402.52 233 -407 228.52 -407 223L-407 147C-407 141.48 -402.52 137 -397 137L-349 137L-327 159ZM-397 139C-401.41 139 -405 142.59 -405 147L-405 223C-405 227.41 -401.41 231 -397 231L-337 231C-332.59 231 -329 227.41 -329 223L-329 159.83L-349.83 139L-397 139Z" />
				<g id="&lt;Clip Group&gt;" clip-path="url(#cp24)">
					<path id="&lt;Path&gt;" class="shp26" d="M-346.13 156.01L-326.77 175.36L-326.77 156.01L-346.13 156.01Z" />
				</g>
				<g id="&lt;Clip Group&gt;" clip-path="url(#cp25)">
					<path id="&lt;Path&gt;" class="shp27" d="M-325 159L-339 159C-344.52 159 -349 154.52 -349 149L-349 135L-325 135L-325 159Z" />
				</g>
			</g>
			<g id="&lt;Group&gt;">
				<g id="&lt;Group&gt;">
					<path id="&lt;Compound Path&gt;" fill-rule="evenodd" class="shp5" d="M-395.78 149.46L-391.83 149.46C-390.77 149.46 -389.92 149.77 -389.27 150.39C-388.62 151.01 -388.29 151.82 -388.29 152.83C-388.29 153.49 -388.45 154.12 -388.77 154.71C-389.09 155.31 -389.57 155.75 -390.21 156.04C-390.86 156.34 -391.41 156.49 -391.87 156.5L-393.31 156.54L-393.31 161L-395.78 161L-395.78 149.46ZM-393.34 151.53L-393.34 154.49L-392.38 154.49C-391.96 154.49 -391.61 154.34 -391.31 154.04C-391.01 153.74 -390.87 153.39 -390.87 152.98C-390.87 152.51 -391.03 152.14 -391.37 151.89C-391.7 151.63 -392.17 151.5 -392.79 151.5L-393.34 151.53Z" />
					<path id="&lt;Compound Path&gt;" class="shp5" d="M-383.02 149.3C-381.74 149.3 -380.67 149.7 -379.8 150.51L-381.35 152.2C-382.16 151.72 -382.75 151.48 -383.1 151.48C-383.38 151.48 -383.62 151.59 -383.82 151.79C-384.02 152 -384.12 152.25 -384.12 152.54C-384.12 153.1 -383.6 153.6 -382.57 154.01C-381.81 154.34 -381.24 154.63 -380.85 154.89C-380.47 155.15 -380.14 155.51 -379.88 155.97C-379.62 156.44 -379.49 156.94 -379.49 157.48C-379.49 158.47 -379.89 159.33 -380.69 160.06C-381.49 160.79 -382.44 161.16 -383.53 161.16C-384.72 161.16 -385.9 160.6 -387.07 159.47L-385.43 157.56C-384.7 158.32 -384.02 158.7 -383.38 158.7C-383.08 158.7 -382.79 158.56 -382.52 158.3C-382.24 158.03 -382.1 157.75 -382.1 157.46C-382.1 156.86 -382.74 156.33 -384.01 155.87C-384.74 155.6 -385.25 155.36 -385.56 155.13C-385.86 154.89 -386.12 154.56 -386.33 154.11C-386.53 153.67 -386.64 153.22 -386.64 152.76C-386.64 151.73 -386.3 150.9 -385.64 150.26C-384.97 149.62 -384.09 149.3 -383.02 149.3Z" />
					<path id="&lt;Compound Path&gt;" fill-rule="evenodd" class="shp5" d="M-377.76 149.46L-373.82 149.46C-372.14 149.46 -370.79 149.99 -369.76 151.05C-368.74 152.11 -368.22 153.51 -368.22 155.24C-368.22 156.98 -368.75 158.38 -369.81 159.43C-370.87 160.48 -372.28 161 -374.03 161L-377.76 161L-377.76 149.46ZM-375.26 151.64L-375.26 158.77L-374.27 158.77C-373.25 158.77 -372.41 158.49 -371.76 157.93C-371.1 157.38 -370.77 156.45 -370.77 155.15C-370.77 154.39 -370.93 153.72 -371.25 153.14C-371.56 152.56 -372.02 152.16 -372.62 151.95C-373.22 151.74 -373.8 151.64 -374.34 151.64L-375.26 151.64Z" />
				</g>
			</g>
			<path id="&lt;Compound Path&gt;" fill-rule="evenodd" class="shp1" d="M-345 206C-345 207.66 -346.34 209 -348 209L-378 209C-379.66 209 -381 207.66 -381 206L-381 182C-381 180.34 -379.66 179 -378 179L-348 179C-346.34 179 -345 180.34 -345 182L-345 206ZM-351 203L-351 185L-375 185L-375 203L-351 203Z" />
			<path id="&lt;Path&gt;" class="shp1" d="M-363 216C-363 217.66 -364.34 219 -366 219L-390 219C-391.66 219 -393 217.66 -393 216L-393 200C-393 198.34 -391.66 197 -390 197L-366 197C-364.34 197 -363 198.34 -363 200L-363 216Z" />
			<path id="&lt;Path&gt;" class="shp1" d="M-355 193L-363 193L-363 189L-355 189L-355 193Z" />
			<path id="&lt;Path&gt;" class="shp1" d="M-359 197L-359 189L-355 189L-355 197L-359 197Z" />
			<path id="&lt;Path&gt;" class="shp0" d="M-261 232C-265.96 232 -270 227.96 -270 223L-270 147C-270 142.04 -265.96 138 -261 138L-213.42 138L-192 159.41L-192 223C-192 227.96 -196.04 232 -201 232L-261 232Z" />
			<path id="&lt;Compound Path&gt;" fill-rule="evenodd" class="shp1" d="M-191 159L-191 223C-191 228.52 -195.48 233 -201 233L-261 233C-266.52 233 -271 228.52 -271 223L-271 147C-271 141.48 -266.52 137 -261 137L-213 137L-191 159ZM-261 139C-265.41 139 -269 142.59 -269 147L-269 223C-269 227.41 -265.41 231 -261 231L-201 231C-196.59 231 -193 227.41 -193 223L-193 159.83L-213.83 139L-261 139Z" />
			<g id="&lt;Clip Group&gt;" clip-path="url(#cp26)">
				<path id="&lt;Path&gt;" class="shp28" d="M-261 232C-265.96 232 -270 227.96 -270 223L-270 147C-270 142.04 -265.96 138 -261 138L-213.42 138L-192 159.41L-192 223C-192 227.96 -196.04 232 -201 232L-261 232Z" />
				<path id="&lt;Compound Path&gt;" fill-rule="evenodd" class="shp29" d="M-191 159L-191 223C-191 228.52 -195.48 233 -201 233L-261 233C-266.52 233 -271 228.52 -271 223L-271 147C-271 141.48 -266.52 137 -261 137L-213 137L-191 159ZM-261 139C-265.41 139 -269 142.59 -269 147L-269 223C-269 227.41 -265.41 231 -261 231L-201 231C-196.59 231 -193 227.41 -193 223L-193 159.83L-213.83 139L-261 139Z" />
				<g id="&lt;Clip Group&gt;" clip-path="url(#cp27)">
					<path id="&lt;Path&gt;" class="shp29" d="M-210.13 156.01L-190.77 175.36L-190.77 156.01L-210.13 156.01Z" />
				</g>
				<g id="&lt;Clip Group&gt;" clip-path="url(#cp28)">
					<path id="&lt;Path&gt;" class="shp30" d="M-189 159L-203 159C-208.52 159 -213 154.52 -213 149L-213 135L-189 135L-189 159Z" />
				</g>
			</g>
			<g id="&lt;Group&gt;">
				<g id="&lt;Group&gt;">
					<path id="&lt;Compound Path&gt;" class="shp5" d="M-260.62 149.46L-252.86 149.46L-252.86 151.91L-255.51 151.91L-255.51 161L-257.99 161L-257.99 151.91L-260.62 151.91L-260.62 149.46Z" />
					<path id="&lt;Compound Path&gt;" class="shp5" d="M-251.67 149.46L-249.03 149.46L-246.71 152.99L-244.32 149.46L-241.74 149.46L-245.4 154.95L-241.38 161L-243.95 161L-246.7 156.9L-249.43 161L-252.05 161L-248 154.95L-251.67 149.46Z" />
					<path id="&lt;Compound Path&gt;" class="shp5" d="M-240.57 149.46L-232.81 149.46L-232.81 151.91L-235.46 151.91L-235.46 161L-237.95 161L-237.95 151.91L-240.57 151.91L-240.57 149.46Z" />
				</g>
			</g>
			<path id="&lt;Path&gt;" class="shp9" d="M-206 185L-255 185C-256.66 185 -258 186.34 -258 188C-258 189.66 -256.66 191 -255 191L-206 191C-204.34 191 -203 189.66 -203 188C-203 186.34 -204.34 185 -206 185Z" />
			<path id="&lt;Path&gt;" class="shp9" d="M-206 197L-255 197C-256.66 197 -258 198.34 -258 200C-258 201.66 -256.66 203 -255 203L-206 203C-204.34 203 -203 201.66 -203 200C-203 198.34 -204.34 197 -206 197Z" />
			<path id="&lt;Path&gt;" class="shp9" d="M-206 209L-255 209C-256.66 209 -258 210.34 -258 212C-258 213.66 -256.66 215 -255 215L-206 215C-204.34 215 -203 213.66 -203 212C-203 210.34 -204.34 209 -206 209Z" />
			<path id="&lt;Path&gt;" class="shp31" d="M-213 219L-216 219L-216 179L-213 179L-213 219Z" />
			<path id="&lt;Path&gt;" class="shp0" d="M-125 232C-129.96 232 -134 227.96 -134 223L-134 147C-134 142.04 -129.96 138 -125 138L-77.41 138L-56 159.41L-56 223C-56 227.96 -60.04 232 -65 232L-125 232Z" />
			<path id="&lt;Compound Path&gt;" fill-rule="evenodd" class="shp1" d="M-55 159L-55 223C-55 228.52 -59.48 233 -65 233L-125 233C-130.52 233 -135 228.52 -135 223L-135 147C-135 141.48 -130.52 137 -125 137L-77 137L-55 159ZM-125 139C-129.41 139 -133 142.59 -133 147L-133 223C-133 227.41 -129.41 231 -125 231L-65 231C-60.59 231 -57 227.41 -57 223L-57 159.83L-77.83 139L-125 139Z" />
			<g id="&lt;Clip Group&gt;" clip-path="url(#cp29)">
				<path id="&lt;Path&gt;" class="shp32" d="M-125 232C-129.96 232 -134 227.96 -134 223L-134 147C-134 142.04 -129.96 138 -125 138L-77.41 138L-56 159.41L-56 223C-56 227.96 -60.04 232 -65 232L-125 232Z" />
				<path id="&lt;Compound Path&gt;" fill-rule="evenodd" class="shp33" d="M-55 159L-55 223C-55 228.52 -59.48 233 -65 233L-125 233C-130.52 233 -135 228.52 -135 223L-135 147C-135 141.48 -130.52 137 -125 137L-77 137L-55 159ZM-125 139C-129.41 139 -133 142.59 -133 147L-133 223C-133 227.41 -129.41 231 -125 231L-65 231C-60.59 231 -57 227.41 -57 223L-57 159.83L-77.83 139L-125 139Z" />
				<g id="&lt;Clip Group&gt;" clip-path="url(#cp30)">
					<path id="&lt;Path&gt;" class="shp33" d="M-74.13 156.01L-54.77 175.36L-54.77 156.01L-74.13 156.01Z" />
				</g>
				<g id="&lt;Clip Group&gt;" clip-path="url(#cp31)">
					<path id="&lt;Path&gt;" class="shp34" d="M-53 159L-67 159C-72.52 159 -77 154.52 -77 149L-77 135L-53 135L-53 159Z" />
				</g>
			</g>
			<g id="&lt;Group&gt;">
				<g id="&lt;Group&gt;">
					<path id="&lt;Compound Path&gt;" class="shp5" d="M-123.68 149.46L-115.31 149.46L-120.52 158.61L-115.5 158.61L-115.5 161L-124.37 161L-119.13 151.83L-123.68 151.83L-123.68 149.46Z" />
					<path id="&lt;Compound Path&gt;" class="shp5" d="M-113.46 149.46L-110.97 149.46L-110.97 161L-113.46 161L-113.46 149.46Z" />
					<path id="&lt;Compound Path&gt;" fill-rule="evenodd" class="shp5" d="M-108.61 149.46L-104.66 149.46C-103.6 149.46 -102.75 149.77 -102.1 150.39C-101.45 151.01 -101.12 151.82 -101.12 152.83C-101.12 153.49 -101.28 154.12 -101.6 154.71C-101.92 155.31 -102.4 155.75 -103.05 156.04C-103.69 156.34 -104.24 156.49 -104.7 156.5L-106.14 156.54L-106.14 161L-108.61 161L-108.61 149.46ZM-106.17 151.53L-106.17 154.49L-105.21 154.49C-104.79 154.49 -104.44 154.34 -104.14 154.04C-103.84 153.74 -103.7 153.39 -103.7 152.98C-103.7 152.51 -103.86 152.14 -104.2 151.89C-104.53 151.63 -105 151.5 -105.62 151.5L-106.17 151.53Z" />
				</g>
			</g>
			<path id="&lt;Path&gt;" class="shp1" d="M-77 233L-89 233L-89 225L-77 225L-77 233Z" />
			<path id="&lt;Path&gt;" class="shp1" d="M-83 225L-89 225L-89 219L-83 219L-83 225Z" />
			<path id="&lt;Path&gt;" class="shp1" d="M-77 219L-83 219L-83 213L-77 213L-77 219Z" />
			<path id="&lt;Path&gt;" class="shp1" d="M-83 213L-89 213L-89 207L-83 207L-83 213Z" />
			<path id="&lt;Path&gt;" class="shp1" d="M-77 207L-83 207L-83 201L-77 201L-77 207Z" />
			<path id="&lt;Path&gt;" class="shp1" d="M-78.2 173L-87.8 173L-91.75 184.85C-92.69 187.67 -92.22 190.76 -90.49 193.16C-88.75 195.57 -85.97 197 -83 197L-83 197C-80.04 197 -77.25 195.57 -75.52 193.17C-73.78 190.76 -73.31 187.67 -74.25 184.86L-78.2 173Z" />
			<path id="&lt;Path&gt;" class="shp0" d="M-87 187C-87 184.79 -85.21 183 -83 183C-80.79 183 -79 184.79 -79 187C-79 189.21 -80.79 191 -83 191C-85.21 191 -87 189.21 -87 187Z" />
			<path id="&lt;Path&gt;" class="shp0" d="M11 232C6.04 232 2 227.96 2 223L2 147C2 142.04 6.04 138 11 138L58.59 138L80 159.41L80 223C80 227.96 75.96 232 71 232L11 232Z" />
			<path id="&lt;Compound Path&gt;" fill-rule="evenodd" class="shp1" d="M81 159L81 223C81 228.52 76.52 233 71 233L11 233C5.48 233 1 228.52 1 223L1 147C1 141.48 5.48 137 11 137L59 137L81 159ZM11 139C6.59 139 3 142.59 3 147L3 223C3 227.41 6.59 231 11 231L71 231C75.41 231 79 227.41 79 223L79 159.83L58.17 139L11 139Z" />
			<g id="&lt;Clip Group&gt;" clip-path="url(#cp32)">
				<path id="&lt;Path&gt;" class="shp35" d="M11 232C6.04 232 2 227.96 2 223L2 147C2 142.04 6.04 138 11 138L58.59 138L80 159.41L80 223C80 227.96 75.96 232 71 232L11 232Z" />
				<path id="&lt;Compound Path&gt;" fill-rule="evenodd" class="shp36" d="M81 159L81 223C81 228.52 76.52 233 71 233L11 233C5.48 233 1 228.52 1 223L1 147C1 141.48 5.48 137 11 137L59 137L81 159ZM11 139C6.59 139 3 142.59 3 147L3 223C3 227.41 6.59 231 11 231L71 231C75.41 231 79 227.41 79 223L79 159.83L58.17 139L11 139Z" />
				<g id="&lt;Clip Group&gt;" clip-path="url(#cp33)">
					<path id="&lt;Path&gt;" class="shp36" d="M61.87 156.01L81.23 175.36L81.23 156.01L61.87 156.01Z" />
				</g>
				<g id="&lt;Clip Group&gt;" clip-path="url(#cp34)">
					<path id="&lt;Path&gt;" class="shp37" d="M83 159L69 159C63.48 159 59 154.52 59 149L59 135L83 135L83 159Z" />
				</g>
			</g>
			<g id="&lt;Group&gt;">
				<g id="&lt;Group&gt;">
					<path id="&lt;Compound Path&gt;" class="shp5" d="M11.29 149.46L13.5 149.46L15.36 157.33L17.3 149.46L18.88 149.46L20.79 157.36L22.69 149.46L24.9 149.46L22.11 161L19.77 161L18.08 153.92L16.38 161L14.05 161L11.29 149.46Z" />
				</g>
				<g id="&lt;Group&gt;">
					<path id="&lt;Compound Path&gt;" fill-rule="evenodd" class="shp5" d="M29.71 149.46L31.64 149.46L36.34 161L33.84 161L32.91 158.73L28.48 158.73L27.58 161L25.09 161L29.71 149.46ZM30.67 153.24L29.32 156.64L32.06 156.64L30.67 153.24Z" />
				</g>
				<g id="&lt;Group&gt;">
					<path id="&lt;Compound Path&gt;" class="shp5" d="M35.54 149.46L38.06 149.46L40.97 157.13L43.9 149.46L46.42 149.46L42.05 161L39.89 161L35.54 149.46Z" />
				</g>
			</g>
			<path id="&lt;Path&gt;" class="shp1" d="M36 223C35.01 223 34.17 222.28 34.02 221.3L30.51 197.88L27.94 208.15C27.73 209 26.99 209.62 26.11 209.66C25.26 209.71 24.44 209.19 24.13 208.37L20.41 198.45L17.6 202.2C17.22 202.7 16.63 203 16 203L11 203C9.89 203 9 202.11 9 201C9 199.89 9.89 199 11 199L15 199L19.4 193.13C19.84 192.55 20.56 192.25 21.29 192.35C22.01 192.46 22.62 192.95 22.88 193.63L25.62 200.95L29.06 187.18C29.29 186.26 30.15 185.65 31.1 185.67C32.05 185.71 32.84 186.43 32.98 187.37L35.82 206.32L39.02 180.75C39.14 179.76 39.98 179.01 40.97 179L41 179C41.99 179 42.83 179.72 42.98 180.7L46.22 202.31L49.04 187.3C49.21 186.37 50 185.7 50.94 185.67C51.9 185.64 52.71 186.27 52.94 187.18L56.38 200.95L59.13 193.63C59.38 192.95 59.99 192.46 60.72 192.35C61.44 192.25 62.16 192.55 62.6 193.13L67 199L71 199C72.11 199 73 199.89 73 201C73 202.11 72.11 203 71 203L66 203C65.37 203 64.78 202.7 64.4 202.2L61.59 198.45L57.87 208.37C57.56 209.19 56.75 209.71 55.89 209.66C55.01 209.62 54.27 209 54.06 208.15L51.28 197.03L47.96 214.7C47.79 215.65 46.96 216.33 46 216.33L45.96 216.33C44.99 216.31 44.17 215.59 44.02 214.63L41.18 195.69L37.99 221.25C37.86 222.24 37.03 222.99 36.03 223L36 223Z" />
			<path id="&lt;Path&gt;" class="shp0" d="M147 232C142.04 232 138 227.96 138 223L138 147C138 142.04 142.04 138 147 138L194.59 138L216 159.41L216 223C216 227.96 211.96 232 207 232L147 232Z" />
			<path id="&lt;Compound Path&gt;" fill-rule="evenodd" class="shp1" d="M217 159L217 223C217 228.52 212.52 233 207 233L147 233C141.48 233 137 228.52 137 223L137 147C137 141.48 141.48 137 147 137L195 137L217 159ZM147 139C142.59 139 139 142.59 139 147L139 223C139 227.41 142.59 231 147 231L207 231C211.41 231 215 227.41 215 223L215 159.83L194.17 139L147 139Z" />
			<g id="&lt;Clip Group&gt;" clip-path="url(#cp35)">
				<path id="&lt;Path&gt;" class="shp38" d="M147 232C142.04 232 138 227.96 138 223L138 147C138 142.04 142.04 138 147 138L194.59 138L216 159.41L216 223C216 227.96 211.96 232 207 232L147 232Z" />
				<path id="&lt;Compound Path&gt;" fill-rule="evenodd" class="shp39" d="M217 159L217 223C217 228.52 212.52 233 207 233L147 233C141.48 233 137 228.52 137 223L137 147C137 141.48 141.48 137 147 137L195 137L217 159ZM147 139C142.59 139 139 142.59 139 147L139 223C139 227.41 142.59 231 147 231L207 231C211.41 231 215 227.41 215 223L215 159.83L194.17 139L147 139Z" />
				<g id="&lt;Clip Group&gt;" clip-path="url(#cp36)">
					<path id="&lt;Path&gt;" class="shp39" d="M197.87 156.01L217.23 175.36L217.23 156.01L197.87 156.01Z" />
				</g>
				<g id="&lt;Clip Group&gt;" clip-path="url(#cp37)">
					<path id="&lt;Path&gt;" class="shp40" d="M219 159L205 159C199.48 159 195 154.52 195 149L195 135L219 135L219 159Z" />
				</g>
			</g>
			<g id="&lt;Group&gt;">
				<g id="&lt;Group&gt;">
					<path id="&lt;Compound Path&gt;" class="shp5" d="M149 149.46L151.95 149.46L154.12 156.38L156.28 149.46L159.13 149.46L160.61 161L158.24 161L157.23 152.88L154.69 161L153.56 161L150.95 152.81L149.99 161L147.58 161L149 149.46Z" />
					<path id="&lt;Compound Path&gt;" fill-rule="evenodd" class="shp5" d="M162.48 149.46L166.42 149.46C167.48 149.46 168.34 149.77 168.99 150.39C169.64 151.01 169.96 151.82 169.96 152.83C169.96 153.49 169.81 154.12 169.49 154.71C169.17 155.31 168.69 155.75 168.04 156.04C167.4 156.34 166.85 156.49 166.39 156.5L164.95 156.54L164.95 161L162.48 161L162.48 149.46ZM164.91 151.53L164.91 154.49L165.88 154.49C166.29 154.49 166.65 154.34 166.95 154.04C167.24 153.74 167.39 153.39 167.39 152.98C167.39 152.51 167.22 152.14 166.89 151.89C166.55 151.63 166.08 151.5 165.46 151.5L164.91 151.53Z" />
					<path id="&lt;Compound Path&gt;" class="shp5" d="M175.47 151.38C174.61 151.38 174.11 151.92 173.97 152.99L171.71 152.99C171.78 151.97 172.15 151.14 172.84 150.52C173.52 149.9 174.34 149.59 175.29 149.59C176.34 149.59 177.23 149.89 177.97 150.48C178.7 151.08 179.07 151.79 179.07 152.63C179.07 153.54 178.62 154.37 177.72 155.11C178.29 155.47 178.71 155.85 178.98 156.25C179.25 156.64 179.38 157.12 179.38 157.67C179.38 158.72 179.03 159.56 178.33 160.19C177.63 160.82 176.71 161.14 175.56 161.14C174.5 161.14 173.62 160.84 172.91 160.23C172.21 159.63 171.78 158.78 171.62 157.7L173.94 157.7C174.21 158.77 174.74 159.3 175.53 159.3C175.92 159.3 176.25 159.16 176.52 158.88C176.79 158.61 176.93 158.26 176.93 157.85C176.93 157.34 176.76 156.93 176.44 156.61C176.11 156.29 175.7 156.13 175.19 156.13L174.77 156.13L174.77 154.24L175.02 154.24C175.55 154.24 175.98 154.11 176.3 153.85C176.63 153.58 176.79 153.24 176.79 152.8C176.79 152.41 176.66 152.08 176.4 151.8C176.15 151.52 175.84 151.38 175.47 151.38Z" />
				</g>
			</g>
			<path id="&lt;Path&gt;" class="shp1" d="M166.38 185.25C165.39 185.39 164.66 186.24 164.66 187.24L164.66 195.79L164.66 209.75C163.71 209.38 162.67 209.15 161.55 209.15C157.57 209.15 154.35 211.8 154.35 215.07C154.35 218.34 157.57 221 161.55 221C165.53 221 168.75 218.34 168.75 215.07L168.75 195.21L188.91 192.37L188.91 205.75C187.96 205.38 186.92 205.15 185.8 205.15C181.82 205.15 178.6 207.8 178.6 211.07C178.6 214.34 181.82 217 185.8 217C189.78 217 193 214.34 193 211.07L193 191.79L193 183.8C193 183.22 192.75 182.67 192.31 182.29C191.88 181.91 191.29 181.74 190.72 181.82L166.38 185.25Z" />
			<path id="&lt;Path&gt;" class="shp0" d="M-261 368C-265.96 368 -270 363.96 -270 359L-270 283C-270 278.04 -265.96 274 -261 274L-213.41 274L-192 295.41L-192 359C-192 363.96 -196.04 368 -201 368L-261 368Z" />
			<path id="&lt;Compound Path&gt;" fill-rule="evenodd" class="shp1" d="M-191 295L-191 359C-191 364.52 -195.48 369 -201 369L-261 369C-266.52 369 -271 364.52 -271 359L-271 283C-271 277.48 -266.52 273 -261 273L-213 273L-191 295ZM-261 275C-265.41 275 -269 278.59 -269 283L-269 359C-269 363.41 -265.41 367 -261 367L-201 367C-196.59 367 -193 363.41 -193 359L-193 295.83L-213.83 275L-261 275Z" />
			<g id="&lt;Clip Group&gt;" clip-path="url(#cp38)">
				<path id="&lt;Path&gt;" class="shp41" d="M-261 368C-265.96 368 -270 363.96 -270 359L-270 283C-270 278.04 -265.96 274 -261 274L-213.41 274L-192 295.41L-192 359C-192 363.96 -196.04 368 -201 368L-261 368Z" />
				<path id="&lt;Compound Path&gt;" fill-rule="evenodd" class="shp42" d="M-191 295L-191 359C-191 364.52 -195.48 369 -201 369L-261 369C-266.52 369 -271 364.52 -271 359L-271 283C-271 277.48 -266.52 273 -261 273L-213 273L-191 295ZM-261 275C-265.41 275 -269 278.59 -269 283L-269 359C-269 363.41 -265.41 367 -261 367L-201 367C-196.59 367 -193 363.41 -193 359L-193 295.83L-213.83 275L-261 275Z" />
				<g id="&lt;Clip Group&gt;" clip-path="url(#cp39)">
					<path id="&lt;Path&gt;" class="shp42" d="M-210.13 292.01L-190.77 311.36L-190.77 292.01L-210.13 292.01Z" />
				</g>
				<g id="&lt;Clip Group&gt;" clip-path="url(#cp40)">
					<path id="&lt;Path&gt;" class="shp43" d="M-189 295L-203 295C-208.52 295 -213 290.52 -213 285L-213 271L-189 271L-189 295Z" />
				</g>
			</g>
			<g id="&lt;Group&gt;">
				<g id="&lt;Group&gt;">
					<path id="&lt;Compound Path&gt;" class="shp5" d="M-259.86 285.46L-257.37 285.46L-257.37 289.91L-253.28 289.91L-253.28 285.46L-250.8 285.46L-250.8 297L-253.28 297L-253.28 292.41L-257.37 292.41L-257.37 297L-259.86 297L-259.86 285.46Z" />
					<path id="&lt;Compound Path&gt;" class="shp5" d="M-249.2 285.46L-241.44 285.46L-241.44 287.91L-244.08 287.91L-244.08 297L-246.57 297L-246.57 287.91L-249.2 287.91L-249.2 285.46Z" />
					<path id="&lt;Compound Path&gt;" class="shp5" d="M-238.95 285.46L-236 285.46L-233.84 292.38L-231.67 285.46L-228.82 285.46L-227.34 297L-229.71 297L-230.73 288.88L-233.27 297L-234.39 297L-237 288.81L-237.96 297L-240.37 297L-238.95 285.46Z" />
				</g>
			</g>
			<path id="&lt;Path&gt;" class="shp1" d="M-253.73 339.97L-257.97 335.73L-245.24 323L-241 327.24L-253.73 339.97Z" />
			<path id="&lt;Path&gt;" class="shp1" d="M-257.97 335.73L-253.73 331.48L-241 344.21L-245.24 348.45L-257.97 335.73Z" />
			<path id="&lt;Path&gt;" class="shp1" d="M-208.27 331.48L-204.03 335.73L-216.76 348.45L-221 344.21L-208.27 331.48Z" />
			<path id="&lt;Path&gt;" class="shp1" d="M-204.03 335.73L-208.27 339.97L-221 327.24L-216.76 323L-204.03 335.73Z" />
			<path id="&lt;Path&gt;" class="shp1" d="M-235 351L-239 351L-229 321L-225 321L-235 351Z" />
			<path id="&lt;Path&gt;" class="shp0" d="M-533 368C-537.96 368 -542 363.96 -542 359L-542 283C-542 278.04 -537.96 274 -533 274L-485.42 274L-464 295.41L-464 359C-464 363.96 -468.04 368 -473 368L-533 368Z" />
			<path id="&lt;Compound Path&gt;" fill-rule="evenodd" class="shp1" d="M-463 295L-463 359C-463 364.52 -467.48 369 -473 369L-533 369C-538.52 369 -543 364.52 -543 359L-543 283C-543 277.48 -538.52 273 -533 273L-485 273L-463 295ZM-533 275C-537.41 275 -541 278.59 -541 283L-541 359C-541 363.41 -537.41 367 -533 367L-473 367C-468.59 367 -465 363.41 -465 359L-465 295.83L-485.83 275L-533 275Z" />
			<g id="&lt;Clip Group&gt;" clip-path="url(#cp41)">
				<path id="&lt;Path&gt;" class="shp44" d="M-533 368C-537.96 368 -542 363.96 -542 359L-542 283C-542 278.04 -537.96 274 -533 274L-485.42 274L-464 295.41L-464 359C-464 363.96 -468.04 368 -473 368L-533 368Z" />
				<path id="&lt;Compound Path&gt;" fill-rule="evenodd" class="shp45" d="M-463 295L-463 359C-463 364.52 -467.48 369 -473 369L-533 369C-538.52 369 -543 364.52 -543 359L-543 283C-543 277.48 -538.52 273 -533 273L-485 273L-463 295ZM-533 275C-537.41 275 -541 278.59 -541 283L-541 359C-541 363.41 -537.41 367 -533 367L-473 367C-468.59 367 -465 363.41 -465 359L-465 295.83L-485.83 275L-533 275Z" />
				<g id="&lt;Clip Group&gt;" clip-path="url(#cp42)">
					<path id="&lt;Path&gt;" class="shp45" d="M-482.13 292.01L-462.77 311.36L-462.77 292.01L-482.13 292.01Z" />
				</g>
				<g id="&lt;Clip Group&gt;" clip-path="url(#cp43)">
					<path id="&lt;Path&gt;" class="shp46" d="M-461 295L-475 295C-480.52 295 -485 290.52 -485 285L-485 271L-461 271L-461 295Z" />
				</g>
			</g>
			<g id="&lt;Group&gt;">
				<g id="&lt;Group&gt;">
					<path id="&lt;Compound Path&gt;" class="shp5" d="M-526.49 285.3C-525.47 285.3 -524.38 285.56 -523.21 286.07L-523.21 288.89C-524.46 288.14 -525.55 287.76 -526.49 287.76C-527.42 287.76 -528.17 288.09 -528.74 288.73C-529.3 289.38 -529.58 290.24 -529.58 291.33C-529.58 292.36 -529.29 293.19 -528.69 293.8C-528.1 294.42 -527.31 294.73 -526.32 294.73C-525.45 294.73 -524.42 294.38 -523.21 293.69L-523.21 296.48C-524.56 296.93 -525.69 297.16 -526.59 297.16C-528.15 297.16 -529.46 296.59 -530.55 295.45C-531.63 294.31 -532.17 292.92 -532.17 291.28C-532.17 289.61 -531.62 288.2 -530.52 287.04C-529.41 285.88 -528.07 285.3 -526.49 285.3Z" />
					<path id="&lt;Compound Path&gt;" class="shp5" d="M-518.08 285.3C-516.8 285.3 -515.73 285.7 -514.86 286.51L-516.41 288.2C-517.22 287.72 -517.81 287.48 -518.16 287.48C-518.44 287.48 -518.68 287.59 -518.88 287.79C-519.08 288 -519.17 288.25 -519.17 288.54C-519.17 289.1 -518.66 289.6 -517.63 290.01C-516.87 290.33 -516.3 290.63 -515.91 290.89C-515.53 291.15 -515.2 291.51 -514.94 291.97C-514.68 292.44 -514.55 292.94 -514.55 293.48C-514.55 294.47 -514.95 295.33 -515.75 296.06C-516.55 296.79 -517.5 297.16 -518.59 297.16C-519.78 297.16 -520.96 296.6 -522.13 295.47L-520.49 293.56C-519.76 294.32 -519.08 294.7 -518.44 294.7C-518.14 294.7 -517.85 294.56 -517.58 294.3C-517.3 294.03 -517.16 293.75 -517.16 293.46C-517.16 292.86 -517.8 292.33 -519.07 291.87C-519.8 291.6 -520.31 291.36 -520.62 291.13C-520.92 290.89 -521.18 290.56 -521.38 290.11C-521.59 289.67 -521.7 289.22 -521.7 288.76C-521.7 287.73 -521.36 286.9 -520.7 286.26C-520.03 285.62 -519.15 285.3 -518.08 285.3Z" />
					<path id="&lt;Compound Path&gt;" class="shp5" d="M-509.51 285.3C-508.23 285.3 -507.16 285.7 -506.29 286.51L-507.84 288.2C-508.65 287.72 -509.24 287.48 -509.59 287.48C-509.87 287.48 -510.11 287.59 -510.31 287.79C-510.51 288 -510.61 288.25 -510.61 288.54C-510.61 289.1 -510.09 289.6 -509.06 290.01C-508.3 290.33 -507.73 290.63 -507.34 290.89C-506.96 291.15 -506.63 291.51 -506.37 291.97C-506.11 292.44 -505.98 292.94 -505.98 293.48C-505.98 294.47 -506.38 295.33 -507.18 296.06C-507.98 296.79 -508.93 297.16 -510.02 297.16C-511.21 297.16 -512.39 296.6 -513.56 295.47L-511.92 293.56C-511.19 294.32 -510.51 294.7 -509.87 294.7C-509.57 294.7 -509.28 294.56 -509.01 294.3C-508.73 294.03 -508.59 293.75 -508.59 293.46C-508.59 292.86 -509.23 292.33 -510.5 291.87C-511.23 291.6 -511.74 291.36 -512.05 291.13C-512.35 290.89 -512.61 290.56 -512.82 290.11C-513.02 289.67 -513.13 289.22 -513.13 288.76C-513.13 287.73 -512.79 286.9 -512.13 286.26C-511.46 285.62 -510.58 285.3 -509.51 285.3Z" />
				</g>
			</g>
			<path id="&lt;Path&gt;" class="shp1" d="M-531 339.11L-531 334.86C-529.88 334.82 -529.06 334.6 -528.55 334.19C-528.04 333.78 -527.67 333.17 -527.46 332.36C-527.24 331.55 -527.13 330.29 -527.13 328.57L-527.13 327.95C-527.13 326 -527.02 324.6 -526.78 323.74C-526.55 322.89 -526.15 322.19 -525.59 321.65C-525.04 321.12 -524.35 320.72 -523.52 320.48C-522.69 320.23 -521.49 320.11 -519.91 320.11L-518.96 320.11L-518.96 324.33L-519.19 324.33C-520.61 324.33 -521.52 324.47 -521.94 324.76C-522.35 325.04 -522.56 325.74 -522.56 326.84C-522.61 330.82 -522.87 333.33 -523.35 334.37C-523.83 335.4 -524.67 336.28 -525.85 336.99C-524.42 337.8 -523.51 338.94 -523.13 340.39C-522.75 341.86 -522.56 344.11 -522.56 347.16C-522.56 348.25 -522.34 348.94 -521.9 349.23C-521.46 349.53 -520.57 349.67 -519.22 349.67L-518.96 349.67L-518.96 353.89L-519.91 353.89C-521.97 353.89 -523.48 353.64 -524.43 353.14C-525.38 352.65 -526.06 351.96 -526.49 351.1C-526.92 350.24 -527.13 348.55 -527.13 346.03L-527.13 345.41C-527.13 342.65 -527.47 340.9 -528.15 340.17C-528.83 339.43 -529.78 339.07 -531 339.11Z" />
			<path id="&lt;Path&gt;" class="shp1" d="M-473 334.86L-473 339.11C-474.11 339.14 -474.92 339.37 -475.43 339.78C-475.94 340.19 -476.31 340.8 -476.52 341.61C-476.74 342.42 -476.85 343.69 -476.85 345.41L-476.85 346.03C-476.85 348.34 -476.99 349.87 -477.28 350.63C-477.57 351.38 -477.94 351.96 -478.39 352.35C-478.84 352.75 -479.42 353.1 -480.12 353.42C-480.82 353.73 -482.15 353.89 -484.09 353.89L-485.02 353.89L-485.02 349.67L-484.78 349.67C-483.42 349.67 -482.52 349.53 -482.08 349.23C-481.64 348.94 -481.42 348.25 -481.42 347.16C-481.42 343.93 -481.21 341.62 -480.8 340.23C-480.39 338.83 -479.51 337.75 -478.15 336.99C-479.46 336.21 -480.33 335.24 -480.74 334.08C-481.16 332.93 -481.38 330.52 -481.42 326.84C-481.42 325.74 -481.63 325.04 -482.05 324.76C-482.47 324.47 -483.39 324.33 -484.81 324.33L-485.02 324.33L-485.02 320.11L-484.09 320.11C-482.4 320.11 -481.15 320.24 -480.33 320.51C-479.51 320.78 -478.83 321.2 -478.3 321.77C-477.77 322.33 -477.39 323.04 -477.17 323.88C-476.96 324.72 -476.85 326.08 -476.85 327.95L-476.85 328.57C-476.85 331.43 -476.5 333.2 -475.79 333.88C-475.08 334.57 -474.15 334.89 -473 334.86Z" />
			<path id="&lt;Path&gt;" class="shp1" d="M-510.26 337C-510.26 339.21 -512.05 341 -514.26 341C-516.47 341 -518.26 339.21 -518.26 337C-518.26 334.79 -516.47 333 -514.26 333C-512.05 333 -510.26 334.79 -510.26 337Z" />
			<path id="&lt;Path&gt;" class="shp1" d="M-498.26 337C-498.26 339.21 -500.05 341 -502.26 341C-504.47 341 -506.26 339.21 -506.26 337C-506.26 334.79 -504.47 333 -502.26 333C-500.05 333 -498.26 334.79 -498.26 337Z" />
			<path id="&lt;Path&gt;" class="shp1" d="M-486.26 337C-486.26 339.21 -488.05 341 -490.26 341C-492.47 341 -494.26 339.21 -494.26 337C-494.26 334.79 -492.47 333 -490.26 333C-488.05 333 -486.26 334.79 -486.26 337Z" />
			<path id="&lt;Path&gt;" class="shp0" d="M-397 368C-401.96 368 -406 363.96 -406 359L-406 283C-406 278.04 -401.96 274 -397 274L-349.41 274L-328 295.41L-328 359C-328 363.96 -332.04 368 -337 368L-397 368Z" />
			<path id="&lt;Compound Path&gt;" fill-rule="evenodd" class="shp1" d="M-327 295L-327 359C-327 364.52 -331.48 369 -337 369L-397 369C-402.52 369 -407 364.52 -407 359L-407 283C-407 277.48 -402.52 273 -397 273L-349 273L-327 295ZM-397 275C-401.41 275 -405 278.59 -405 283L-405 359C-405 363.41 -401.41 367 -397 367L-337 367C-332.59 367 -329 363.41 -329 359L-329 295.83L-349.83 275L-397 275Z" />
			<g id="&lt;Clip Group&gt;" clip-path="url(#cp44)">
				<path id="&lt;Path&gt;" class="shp47" d="M-397 368C-401.96 368 -406 363.96 -406 359L-406 283C-406 278.04 -401.96 274 -397 274L-349.41 274L-328 295.41L-328 359C-328 363.96 -332.04 368 -337 368L-397 368Z" />
				<path id="&lt;Compound Path&gt;" fill-rule="evenodd" class="shp48" d="M-327 295L-327 359C-327 364.52 -331.48 369 -337 369L-397 369C-402.52 369 -407 364.52 -407 359L-407 283C-407 277.48 -402.52 273 -397 273L-349 273L-327 295ZM-397 275C-401.41 275 -405 278.59 -405 283L-405 359C-405 363.41 -401.41 367 -397 367L-337 367C-332.59 367 -329 363.41 -329 359L-329 295.83L-349.83 275L-397 275Z" />
				<g id="&lt;Clip Group&gt;" clip-path="url(#cp45)">
					<path id="&lt;Path&gt;" class="shp48" d="M-346.13 292.01L-326.77 311.36L-326.77 292.01L-346.13 292.01Z" />
				</g>
				<g id="&lt;Clip Group&gt;" clip-path="url(#cp46)">
					<path id="&lt;Path&gt;" class="shp49" d="M-325 295L-339 295C-344.52 295 -349 290.52 -349 285L-349 271L-325 271L-325 295Z" />
				</g>
			</g>
			<g id="&lt;Group&gt;">
				<g id="&lt;Group&gt;">
					<path id="&lt;Compound Path&gt;" fill-rule="evenodd" class="shp5" d="M-395.88 285.46L-391.95 285.46C-390.26 285.46 -388.91 285.99 -387.89 287.05C-386.86 288.11 -386.35 289.51 -386.35 291.24C-386.35 292.98 -386.88 294.38 -387.93 295.43C-388.99 296.48 -390.4 297 -392.16 297L-395.88 297L-395.88 285.46ZM-393.38 287.64L-393.38 294.77L-392.39 294.77C-391.38 294.77 -390.54 294.49 -389.88 293.93C-389.22 293.38 -388.9 292.45 -388.9 291.15C-388.9 290.39 -389.05 289.72 -389.37 289.14C-389.69 288.55 -390.15 288.16 -390.75 287.95C-391.35 287.74 -391.92 287.64 -392.46 287.64L-393.38 287.64Z" />
					<path id="&lt;Compound Path&gt;" class="shp5" d="M-384.35 285.46L-381.88 285.46L-381.88 294.51L-378.48 294.51L-378.48 297L-384.35 297L-384.35 285.46Z" />
					<path id="&lt;Compound Path&gt;" class="shp5" d="M-376.67 285.46L-374.2 285.46L-374.2 294.51L-370.8 294.51L-370.8 297L-376.67 297L-376.67 285.46Z" />
				</g>
			</g>
			<path id="&lt;Compound Path&gt;" fill-rule="evenodd" class="shp1" d="M-349 335.5L-349 338.5C-349 339.05 -349.45 339.56 -349.99 339.64L-355.5 340.4C-355.74 341.22 -356.06 342 -356.46 342.73L-353.11 347.16C-352.78 347.6 -352.82 348.28 -353.21 348.67L-355.33 350.79C-355.72 351.18 -356.4 351.22 -356.84 350.89L-361.27 347.54C-362 347.94 -362.78 348.26 -363.6 348.5L-364.36 354.01C-364.44 354.55 -364.95 355 -365.5 355L-368.5 355C-369.05 355 -369.56 354.55 -369.64 354.01L-370.4 348.5C-371.22 348.26 -372 347.94 -372.73 347.54L-377.16 350.89C-377.6 351.22 -378.28 351.18 -378.67 350.79L-380.79 348.67C-381.18 348.28 -381.22 347.6 -380.89 347.16L-377.54 342.73C-377.94 342 -378.26 341.22 -378.5 340.4L-384.01 339.64C-384.55 339.56 -385 339.05 -385 338.5L-385 335.5C-385 334.95 -384.55 334.44 -384.01 334.36L-378.5 333.6C-378.26 332.78 -377.94 332 -377.54 331.27L-380.89 326.84C-381.22 326.4 -381.18 325.72 -380.79 325.33L-378.67 323.21C-378.28 322.82 -377.6 322.78 -377.16 323.11L-372.73 326.45C-372 326.05 -371.22 325.73 -370.4 325.5L-369.64 319.99C-369.56 319.45 -369.05 319 -368.5 319L-365.5 319C-364.95 319 -364.44 319.45 -364.36 319.99L-363.6 325.5C-362.78 325.74 -362 326.05 -361.27 326.46L-356.84 323.11C-356.4 322.78 -355.72 322.82 -355.33 323.21L-353.21 325.33C-352.82 325.72 -352.78 326.4 -353.11 326.84L-356.46 331.27C-356.06 332 -355.74 332.78 -355.5 333.6L-349.99 334.36C-349.45 334.44 -349 334.95 -349 335.5ZM-367 343C-363.69 343 -361 340.31 -361 337C-361 333.68 -363.69 331 -367 331C-370.31 331 -373 333.68 -373 337C-373 340.31 -370.31 343 -367 343Z" />
			<path id="&lt;Path&gt;" class="shp0" d="M11 368C6.04 368 2 363.96 2 359L2 283C2 278.04 6.04 274 11 274L58.59 274L80 295.41L80 359C80 363.96 75.96 368 71 368L11 368Z" />
			<path id="&lt;Compound Path&gt;" fill-rule="evenodd" class="shp1" d="M81 295L81 359C81 364.52 76.52 369 71 369L11 369C5.48 369 1 364.52 1 359L1 283C1 277.48 5.48 273 11 273L59 273L81 295ZM11 275C6.59 275 3 278.59 3 283L3 359C3 363.41 6.59 367 11 367L71 367C75.41 367 79 363.41 79 359L79 295.83L58.17 275L11 275Z" />
			<g id="&lt;Clip Group&gt;" clip-path="url(#cp47)">
				<path id="&lt;Path&gt;" class="shp50" d="M11 368C6.04 368 2 363.96 2 359L2 283C2 278.04 6.04 274 11 274L58.59 274L80 295.41L80 359C80 363.96 75.96 368 71 368L11 368Z" />
				<path id="&lt;Compound Path&gt;" fill-rule="evenodd" class="shp51" d="M81 295L81 359C81 364.52 76.52 369 71 369L11 369C5.48 369 1 364.52 1 359L1 283C1 277.48 5.48 273 11 273L59 273L81 295ZM11 275C6.59 275 3 278.59 3 283L3 359C3 363.41 6.59 367 11 367L71 367C75.41 367 79 363.41 79 359L79 295.83L58.17 275L11 275Z" />
				<g id="&lt;Clip Group&gt;" clip-path="url(#cp48)">
					<path id="&lt;Path&gt;" class="shp51" d="M61.87 292.01L81.23 311.36L81.23 292.01L61.87 292.01Z" />
				</g>
				<g id="&lt;Clip Group&gt;" clip-path="url(#cp49)">
					<path id="&lt;Path&gt;" class="shp52" d="M83 295L69 295C63.48 295 59 290.52 59 285L59 271L83 271L83 295Z" />
				</g>
			</g>
			<g id="&lt;Group&gt;">
				<g id="&lt;Group&gt;">
					<path id="&lt;Compound Path&gt;" fill-rule="evenodd" class="shp5" d="M16.18 285.46L18.1 285.46L22.8 297L20.3 297L19.38 294.73L14.95 294.73L14.04 297L11.55 297L16.18 285.46ZM17.14 289.24L15.78 292.64L18.53 292.64L17.14 289.24Z" />
				</g>
				<g id="&lt;Group&gt;">
					<path id="&lt;Compound Path&gt;" class="shp5" d="M22 285.46L24.52 285.46L27.44 293.13L30.36 285.46L32.88 285.46L28.51 297L26.35 297L22 285.46Z" />
					<path id="&lt;Compound Path&gt;" class="shp5" d="M34.25 285.46L36.74 285.46L36.74 297L34.25 297L34.25 285.46Z" />
				</g>
			</g>
			<path id="&lt;Path&gt;" class="shp1" d="M63 327L53 331.44L53 327C53 324.79 51.21 323 49 323L27 323C24.79 323 23 324.79 23 327L23 345C23 347.21 24.79 349 27 349L49 349C51.21 349 53 347.21 53 345L53 340.56L63 345L63 327Z" />
			<path id="&lt;Path&gt;" class="shp0" d="M-125 368C-129.96 368 -134 363.96 -134 359L-134 283C-134 278.04 -129.96 274 -125 274L-77.41 274L-56 295.41L-56 359C-56 363.96 -60.04 368 -65 368L-125 368Z" />
			<path id="&lt;Compound Path&gt;" fill-rule="evenodd" class="shp1" d="M-55 295L-55 359C-55 364.52 -59.48 369 -65 369L-125 369C-130.52 369 -135 364.52 -135 359L-135 283C-135 277.48 -130.52 273 -125 273L-77 273L-55 295ZM-125 275C-129.41 275 -133 278.59 -133 283L-133 359C-133 363.41 -129.41 367 -125 367L-65 367C-60.59 367 -57 363.41 -57 359L-57 295.83L-77.83 275L-125 275Z" />
			<g id="&lt;Clip Group&gt;" clip-path="url(#cp50)">
				<path id="&lt;Path&gt;" class="shp53" d="M-125 368C-129.96 368 -134 363.96 -134 359L-134 283C-134 278.04 -129.96 274 -125 274L-77.41 274L-56 295.41L-56 359C-56 363.96 -60.04 368 -65 368L-125 368Z" />
				<path id="&lt;Compound Path&gt;" fill-rule="evenodd" class="shp54" d="M-55 295L-55 359C-55 364.52 -59.48 369 -65 369L-125 369C-130.52 369 -135 364.52 -135 359L-135 283C-135 277.48 -130.52 273 -125 273L-77 273L-55 295ZM-125 275C-129.41 275 -133 278.59 -133 283L-133 359C-133 363.41 -129.41 367 -125 367L-65 367C-60.59 367 -57 363.41 -57 359L-57 295.83L-77.83 275L-125 275Z" />
				<g id="&lt;Clip Group&gt;" clip-path="url(#cp51)">
					<path id="&lt;Path&gt;" class="shp54" d="M-74.13 292.01L-54.77 311.36L-54.77 292.01L-74.13 292.01Z" />
				</g>
				<g id="&lt;Clip Group&gt;" clip-path="url(#cp52)">
					<path id="&lt;Path&gt;" class="shp55" d="M-53 295L-67 295C-72.52 295 -77 290.52 -77 285L-77 271L-53 271L-53 295Z" />
				</g>
			</g>
			<g id="&lt;Group&gt;">
				<g id="&lt;Group&gt;">
					<path id="&lt;Compound Path&gt;" class="shp5" d="M-123 285.46L-120.05 285.46L-117.88 292.38L-115.72 285.46L-112.87 285.46L-111.39 297L-113.76 297L-114.77 288.88L-117.31 297L-118.44 297L-121.05 288.81L-122.01 297L-124.42 297L-123 285.46Z" />
				</g>
				<g id="&lt;Group&gt;">
					<path id="&lt;Compound Path&gt;" fill-rule="evenodd" class="shp5" d="M-109.95 291.23C-109.95 289.52 -109.39 288.11 -108.26 287C-107.13 285.89 -105.8 285.34 -104.25 285.34C-102.54 285.34 -101.12 285.89 -100 287.01C-98.88 288.13 -98.32 289.54 -98.32 291.24C-98.32 292.94 -98.88 294.34 -99.99 295.46C-101.09 296.58 -102.49 297.14 -104.17 297.14C-105.85 297.14 -107.24 296.58 -108.32 295.47C-109.41 294.36 -109.95 292.94 -109.95 291.23ZM-104.13 287.64C-105.1 287.62 -105.88 287.96 -106.47 288.64C-107.06 289.33 -107.36 290.21 -107.36 291.3C-107.36 292.32 -107.06 293.17 -106.45 293.84C-105.85 294.52 -105.09 294.86 -104.17 294.86C-103.2 294.86 -102.42 294.52 -101.83 293.86C-101.23 293.19 -100.94 292.32 -100.94 291.23C-100.94 290.15 -101.23 289.29 -101.81 288.64C-102.39 287.99 -103.17 287.66 -104.13 287.64Z" />
				</g>
				<g id="&lt;Group&gt;">
					<path id="&lt;Compound Path&gt;" class="shp5" d="M-97.72 285.46L-95.2 285.46L-92.29 293.13L-89.36 285.46L-86.84 285.46L-91.21 297L-93.37 297L-97.72 285.46Z" />
				</g>
			</g>
			<path id="&lt;Compound Path&gt;" fill-rule="evenodd" class="shp1" d="M-117 337C-117 325.95 -108.05 317 -97 317C-85.96 317 -77 325.95 -77 337C-77 348.05 -85.96 357 -97 357C-108.05 357 -117 348.05 -117 337ZM-97 341C-94.79 341 -93 339.21 -93 337C-93 334.79 -94.79 333 -97 333C-99.21 333 -101 334.79 -101 337C-101 339.21 -99.21 341 -97 341ZM-97 330C-94.24 330 -92 327.76 -92 325C-92 322.24 -94.24 320 -97 320C-99.76 320 -102 322.24 -102 325C-102 327.76 -99.76 330 -97 330ZM-103.66 334.84C-102.81 332.21 -104.24 329.39 -106.87 328.54C-109.5 327.69 -112.31 329.12 -113.17 331.75C-114.02 334.37 -112.58 337.19 -109.96 338.05C-107.33 338.9 -104.51 337.46 -103.66 334.84ZM-101.12 342.66C-103.35 341.04 -106.48 341.54 -108.1 343.77C-109.72 346.01 -109.23 349.13 -106.99 350.76C-104.76 352.38 -101.63 351.88 -100.01 349.65C-98.39 347.41 -98.88 344.29 -101.12 342.66ZM-92.89 342.66C-95.12 344.29 -95.62 347.41 -93.99 349.65C-92.37 351.88 -89.24 352.38 -87.01 350.76C-84.78 349.13 -84.28 346.01 -85.9 343.77C-87.53 341.54 -90.65 341.04 -92.89 342.66ZM-90.34 334.84C-89.48 337.46 -86.67 338.9 -84.04 338.04C-81.42 337.19 -79.98 334.37 -80.83 331.75C-81.69 329.13 -84.51 327.69 -87.13 328.54C-89.76 329.39 -91.19 332.21 -90.34 334.84Z" />
			<path id="&lt;Path&gt;" class="shp1" d="M-76.06 353C-77.68 353 -79 351.68 -79 350.06L-79 341L-83 341L-83 351C-83 354.31 -80.31 357 -77 357L-69 357L-69 353L-76.06 353Z" />
			<path id="&lt;Path&gt;" class="shp0" d="M147 368C142.04 368 138 363.96 138 359L138 283C138 278.04 142.04 274 147 274L194.59 274L216 295.41L216 359C216 363.96 211.96 368 207 368L147 368Z" />
			<path id="&lt;Compound Path&gt;" fill-rule="evenodd" class="shp1" d="M217 295L217 359C217 364.52 212.52 369 207 369L147 369C141.48 369 137 364.52 137 359L137 283C137 277.48 141.48 273 147 273L195 273L217 295ZM147 275C142.59 275 139 278.59 139 283L139 359C139 363.41 142.59 367 147 367L207 367C211.41 367 215 363.41 215 359L215 295.83L194.17 275L147 275Z" />
			<g id="&lt;Clip Group&gt;" clip-path="url(#cp53)">
				<path id="&lt;Path&gt;" class="shp56" d="M147 368C142.04 368 138 363.96 138 359L138 283C138 278.04 142.04 274 147 274L194.59 274L216 295.41L216 359C216 363.96 211.96 368 207 368L147 368Z" />
				<path id="&lt;Compound Path&gt;" fill-rule="evenodd" class="shp57" d="M217 295L217 359C217 364.52 212.52 369 207 369L147 369C141.48 369 137 364.52 137 359L137 283C137 277.48 141.48 273 147 273L195 273L217 295ZM147 275C142.59 275 139 278.59 139 283L139 359C139 363.41 142.59 367 147 367L207 367C211.41 367 215 363.41 215 359L215 295.83L194.17 275L147 275Z" />
				<g id="&lt;Clip Group&gt;" clip-path="url(#cp54)">
					<path id="&lt;Path&gt;" class="shp57" d="M197.87 292.01L217.23 311.36L217.23 292.01L197.87 292.01Z" />
				</g>
				<g id="&lt;Clip Group&gt;" clip-path="url(#cp55)">
					<path id="&lt;Path&gt;" class="shp58" d="M219 295L205 295C199.48 295 195 290.52 195 285L195 271L219 271L219 295Z" />
				</g>
			</g>
			<path id="&lt;Compound Path&gt;" class="shp1" d="M181.03 340.62L181.03 342.32L174.01 342.32L174.01 335.54L175.29 335.54C177.21 335.54 178.76 335.11 179.91 334.23C181.06 333.36 181.63 332.2 181.63 330.74C181.63 329.63 181.2 328.65 180.33 327.81C179.46 326.96 178.46 326.54 177.33 326.54C176.32 326.54 175.43 326.93 174.68 327.71C173.93 328.48 173.56 329.39 173.56 330.42L173.56 330.95L166.54 330.95L166.54 330.64C166.54 327.84 167.66 325.4 169.92 323.32C172.18 321.24 174.84 320.2 177.91 320.2C180.81 320.2 183.32 321.22 185.43 323.26C187.55 325.3 188.61 327.72 188.61 330.52C188.61 332.62 187.97 334.65 186.71 336.62C185.44 338.58 183.55 339.92 181.03 340.62ZM173.61 349.89C173.61 348.81 174 347.88 174.77 347.1C175.55 346.33 176.46 345.94 177.53 345.94C178.63 345.94 179.57 346.33 180.33 347.1C181.1 347.88 181.48 348.81 181.48 349.89C181.48 350.99 181.1 351.93 180.33 352.7C179.57 353.48 178.63 353.86 177.53 353.86C176.46 353.86 175.55 353.47 174.77 352.69C174 351.91 173.61 350.97 173.61 349.89Z" />
			<path id="&lt;Path&gt;" class="shp0" d="M-528 218L-528 212L-522 212L-522 218L-528 218Z" />
			<path id="&lt;Compound Path&gt;" fill-rule="evenodd" class="shp1" d="M-521 219L-529 219L-529 211L-521 211L-521 219ZM-527 213L-527 217L-523 217L-523 213L-527 213Z" />
			<path id="&lt;Path&gt;" class="shp0" d="M-484 218L-484 212L-478 212L-478 218L-484 218Z" />
			<path id="&lt;Compound Path&gt;" fill-rule="evenodd" class="shp1" d="M-477 219L-485 219L-485 211L-477 211L-477 219ZM-483 213L-483 217L-479 217L-479 213L-483 213Z" />
		</g>
	</g>
</svg>