<svg width="42" height="47" viewBox="0 0 42 47" fill="none" xmlns="http://www.w3.org/2000/svg">
<path d="M34.246 16.2269C33.8908 15.1751 33.2164 14.2617 32.3178 13.6154C31.4193 12.9691 30.3417 12.6223 29.2368 12.6239H24.9939V0L23.2108 0.256094C19.1659 0.836993 16.0152 2.89772 13.847 6.38115C12.2838 8.89213 11.5571 11.662 11.2199 13.7338C8.89157 15.5348 6.86605 18.0145 5.19211 21.1152C3.78138 23.728 2.61358 26.7903 1.721 30.2173C0.212843 36.0077 0.0086896 40.8106 0.000781206 41.0122L0 46.5708H3.12382V41.1097C3.16287 40.3018 4.14663 22.6217 13.5738 15.8894L14.1264 15.4947L14.2172 14.8193C14.6874 11.3223 16.312 5.54651 21.8696 3.77113V15.7649H29.2368C29.6886 15.7636 30.1293 15.9047 30.4971 16.1683C30.8649 16.432 31.1412 16.805 31.2872 17.2348C32.5327 20.931 34.6728 25.5563 38.0082 27.7299L37.0051 31.5117C36.656 32.8604 35.8618 34.05 34.7525 34.8858C33.6433 35.7216 32.2847 36.154 30.8991 36.1124C28.1001 36.028 25.1869 36.3951 22.24 37.203L21.0886 37.5186V46.5708H24.2129V39.942C26.3718 39.4292 28.5874 39.1973 30.8052 39.252C32.8937 39.3098 34.9405 38.6568 36.6137 37.3988C38.2869 36.1408 39.4885 34.3515 40.0236 32.321L41.692 26.031L40.4495 25.4956C38.1258 24.4944 35.9228 21.2027 34.246 16.2269Z" fill="black"/>
<path d="M14.1413 25.3639C14.0716 26.4824 14.6215 27.5576 15.6051 28.2142L15.0088 29.2894C14.8306 29.6141 14.8074 29.9966 14.9623 30.3357C15.1094 30.6749 15.4115 30.9419 15.7832 31.0573L16.3951 31.2377C16.6499 31.3177 16.9249 31.3225 17.1827 31.2515C17.4405 31.1804 17.6685 31.0371 17.8356 30.8409L19.4775 29.0368C20.1668 28.9286 20.8174 28.6544 21.3673 28.2431C21.7545 28.3513 22.1418 28.4091 22.529 28.4091C23.2106 28.4091 23.8921 28.2142 24.4652 27.839C24.8757 27.9544 25.2939 28.005 25.7199 27.9977C26.3317 28.005 26.9358 27.8895 27.5012 27.673C28.0454 27.4468 28.5104 27.0826 28.8432 26.622C29.1759 26.1614 29.3631 25.6229 29.3832 25.068C29.4452 24.5485 29.3522 24.0217 29.1121 23.5454C29.3367 23.0042 29.36 22.4125 29.1663 21.8641C28.8798 21.1786 28.3376 20.6085 27.6638 20.2477C27.2146 19.0282 25.9522 18.2128 24.5659 18.2994C23.3267 17.217 21.4292 17.1015 20.0507 18.0324C19.7254 17.953 19.3846 17.9097 19.0438 17.9097C17.9905 17.8881 16.9914 18.321 16.3331 19.0932C14.7532 19.4756 13.6224 20.7889 13.5605 22.3187C13.5217 23.1197 13.7541 23.9062 14.2265 24.5773C14.1723 24.8371 14.1413 25.0969 14.1413 25.3639ZM18.0138 24.3464C17.5723 24.3969 17.2238 24.7072 17.2238 25.1185C17.2238 25.3099 17.3054 25.4935 17.4506 25.6288C17.5959 25.7641 17.7929 25.8401 17.9983 25.8401H18.4862C18.734 26.4896 19.1677 27.0597 19.7409 27.4926C19.5472 27.5576 19.3459 27.5936 19.1445 27.6442C15.1714 27.5936 15.6361 25.335 15.6361 25.2989C15.6566 24.8033 15.8877 24.3355 16.2784 23.9985C16.6691 23.6616 17.1875 23.483 17.7195 23.5022C17.9249 23.5022 18.1219 23.4261 18.2671 23.2908C18.4123 23.1555 18.4939 22.9719 18.4939 22.7805C18.4939 22.5892 18.4123 22.4056 18.2671 22.2703C18.1219 22.135 17.9249 22.0589 17.7195 22.0589C16.7668 22.0806 15.8529 22.4125 15.1404 22.997C15.1017 22.7878 15.0785 22.5713 15.0785 22.3548C15.1249 21.46 15.5586 20.6807 17.3012 20.5291C18.2693 18.3932 20.709 19.5766 20.709 20.2405C20.7322 20.4065 20.5463 20.7601 20.5153 20.7817C20.3099 20.7817 20.1129 20.8577 19.9677 20.9931C19.8225 21.1284 19.7409 21.3119 19.7409 21.5033C19.7409 21.9002 20.0894 22.2249 20.5153 22.2249C20.9258 22.2105 21.3131 22.0662 21.6229 21.8208C21.9946 22.0445 22.4206 22.1816 22.862 22.2249C23.3035 22.261 23.6675 21.9724 23.6907 21.5755C23.705 21.4812 23.6984 21.3852 23.6715 21.2934C23.6445 21.2016 23.5976 21.1159 23.5338 21.0416C23.47 20.9672 23.3905 20.9058 23.3003 20.8611C23.2101 20.8165 23.111 20.7894 23.0092 20.7817C22.8853 20.7673 22.2812 20.6807 22.2812 20.2261C22.2812 19.7498 22.0876 19.2952 21.7545 18.9344C22.467 18.754 23.2338 18.9921 24.0083 19.8653C25.4333 19.656 26.0142 19.8364 26.4402 21.2435C27.1759 21.5827 27.5632 21.8208 27.7336 22.5424C26.8971 22.3837 26.0374 22.4486 25.2397 22.7228C24.8525 22.8599 24.6356 23.264 24.7828 23.6537C24.9299 24.0289 25.3791 24.2165 25.7818 24.0794C26.3472 23.8485 26.9823 23.8341 27.5632 24.0361C27.811 24.231 27.811 24.6351 27.811 24.9526C27.811 25.4866 27.5244 25.9845 27.0365 26.2731C26.626 26.4679 26.1691 26.569 25.7121 26.5617C25.8283 26.3741 25.929 26.1793 26.0142 25.9773C26.0752 25.7919 26.0566 25.5916 25.9624 25.4187C25.8682 25.2458 25.7057 25.1137 25.5091 25.0502C25.3124 24.9866 25.097 24.9966 24.9081 25.078C24.7192 25.1593 24.5716 25.3058 24.4962 25.4866C24.1864 26.3092 23.3964 26.872 22.467 26.9658C21.406 26.9153 20.4611 26.3308 19.9964 25.4288C19.8183 24.433 18.9586 24.3464 18.0138 24.3464ZM16.4648 29.7368L16.945 28.7987L17.4949 28.9142L16.7204 29.8162L16.4648 29.7368ZM20.0661 23.5238C20.0594 23.3395 20.1287 23.1597 20.2598 23.0215C20.3908 22.8833 20.5738 22.797 20.7709 22.7805C21.3208 22.7517 21.8552 22.9249 22.2657 23.264C22.7071 23.6826 22.9395 24.2598 22.9163 24.8443C22.9163 25.0357 22.8347 25.2193 22.6894 25.3546C22.5442 25.4899 22.3472 25.5659 22.1418 25.5659C21.7003 25.5659 21.3673 25.2412 21.3673 24.8443C21.3673 24.6495 21.3131 24.4547 21.1891 24.2959C21.0962 24.2238 20.98 24.1877 20.8561 24.1877C20.4302 24.2093 20.0661 23.9135 20.0661 23.5238Z" fill="black"/>
</svg>
