<svg width="384" height="433" viewBox="0 0 384 433" fill="none" xmlns="http://www.w3.org/2000/svg">
<path d="M260.931 260.006L227.188 231.378C226.385 230.708 225.401 230.346 224.403 230.346C223.008 230.346 221.679 231.049 220.849 232.227C217.009 237.673 212.301 242.385 206.854 246.228C205.84 246.944 205.169 248.038 205.012 249.23C204.855 250.424 205.204 251.604 205.995 252.553L234.642 286.326C236.583 288.656 239.401 290 242.362 290C245.024 290 247.559 288.931 249.501 286.989L261.611 274.88C263.674 272.816 264.739 270.123 264.611 267.295C264.482 264.465 263.175 261.877 260.931 260.006Z" fill="black"/>
<path d="M172.994 251.232C187.314 251.232 200.778 245.655 210.905 235.528C221.033 225.4 226.61 211.937 226.61 197.616C226.61 168.052 202.558 144 172.994 144C143.429 144 119.378 168.052 119.378 197.616C119.378 227.18 143.43 251.232 172.994 251.232ZM136.753 197.616C136.753 177.633 153.01 161.376 172.994 161.376C192.977 161.376 209.234 177.633 209.234 197.616C209.234 207.28 205.461 216.377 198.608 223.229C191.754 230.082 182.658 233.856 172.994 233.856C153.01 233.857 136.753 217.599 136.753 197.616Z" fill="black"/>
<rect width="384" height="433" fill="#C4C4C4" fill-opacity="0.57"/>
</svg>
