<svg width="110" height="130" viewBox="0 0 110 130" fill="none" xmlns="http://www.w3.org/2000/svg">
<path d="M74.8296 77.9609L65.1226 69.333C64.8916 69.1311 64.6086 69.0222 64.3214 69.0222C63.92 69.0222 63.5378 69.234 63.2992 69.5889C62.1945 71.2302 60.84 72.6501 59.273 73.8086C58.9814 74.0243 58.7883 74.3539 58.7433 74.7133C58.6981 75.073 58.7984 75.4287 59.026 75.7146L67.2668 85.8928C67.8252 86.5948 68.636 86.9999 69.4878 86.9999C70.2536 86.9999 70.9828 86.6778 71.5415 86.0925L75.025 82.4431C75.6185 81.8212 75.9251 81.0096 75.8882 80.1573C75.851 79.3045 75.4751 78.5245 74.8296 77.9609Z" fill="black"/>
<path d="M49.5325 75.3165C53.6519 75.3165 57.5252 73.6357 60.4385 70.5837C63.3519 67.5316 64.9562 63.4741 64.9562 59.1583C64.9563 50.2487 58.0372 43 49.5325 43C41.0277 43 34.1089 50.2487 34.1089 59.1583C34.1089 68.0679 41.0279 75.3165 49.5325 75.3165ZM39.1072 59.1583C39.1072 53.136 43.7839 48.2365 49.5325 48.2365C55.2811 48.2365 59.9577 53.136 59.9577 59.1583C59.9577 62.0708 58.8723 64.8122 56.9009 66.8773C54.9294 68.9424 52.3126 70.0798 49.5325 70.0798C43.7839 70.08 39.1072 65.1805 39.1072 59.1583Z" fill="black"/>
<rect width="110" height="130" fill="#C4C4C4" fill-opacity="0.57"/>
</svg>
