<svg xmlns="http://www.w3.org/2000/svg" width="20" height="20" viewBox="0 0 20 20"><g><g><path fill="#aaa" d="M19.62 18.094a1.109 1.109 0 0 1 .243 1.216 1.109 1.109 0 0 1-.243.361 1.108 1.108 0 0 1-1.573 0l-3.755-3.776a8.76 8.76 0 0 1-5.43 1.877 8.847 8.847 0 0 1-4.923-1.498 8.881 8.881 0 0 1-3.264-3.987 8.908 8.908 0 0 1 1.92-9.684A8.842 8.842 0 0 1 12.255.677a8.868 8.868 0 0 1 3.978 3.272 8.902 8.902 0 0 1 1.494 4.937 8.812 8.812 0 0 1-1.872 5.443l3.766 3.765zM4.163 13.6a6.639 6.639 0 0 0 10.841-2.163 6.68 6.68 0 0 0-1.44-7.263A6.642 6.642 0 0 0 6.318 2.73a6.651 6.651 0 0 0-2.983 2.454 6.677 6.677 0 0 0 .827 8.416z"/></g></g></svg>