<svg xmlns="http://www.w3.org/2000/svg" width="100" height="100" viewBox="0 0 100 100"><defs><clipPath id="2o44a"><path fill="#fff" d="M100 50c0 27.614-22.386 50-50 50S0 77.614 0 50 22.386 0 50 0s50 22.386 50 50z"/></clipPath><radialGradient id="2o44b" cx="57.97" cy="59.93" r="12.81" gradientUnits="userSpaceOnUse"><stop offset=".73" stop-color="#6d4c41" stop-opacity="0"/><stop offset="1" stop-color="#6d4c41"/></radialGradient><radialGradient id="2o44c" cx="70.59" cy="58.02" r="3.79" gradientUnits="userSpaceOnUse"><stop offset=".66" stop-color="#6d4c41"/><stop offset="1" stop-color="#6d4c41" stop-opacity="0"/></radialGradient><radialGradient id="2o44d" cx="62.18" cy="52.36" r="13.8" gradientUnits="userSpaceOnUse"><stop offset=".73" stop-color="#6d4c41" stop-opacity="0"/><stop offset="1" stop-color="#6d4c41"/></radialGradient><radialGradient id="2o44e" cx="34.21" cy="50.89" r="9.4" gradientUnits="userSpaceOnUse"><stop offset=".73" stop-color="#6d4c41" stop-opacity="0"/><stop offset="1" stop-color="#6d4c41"/></radialGradient><radialGradient id="2o44f" cx="42.04" cy="59.93" r="12.81" gradientUnits="userSpaceOnUse"><stop offset=".73" stop-color="#6d4c41" stop-opacity="0"/><stop offset="1" stop-color="#6d4c41"/></radialGradient><radialGradient id="2o44g" cx="29.42" cy="58.02" r="3.79" gradientUnits="userSpaceOnUse"><stop offset=".66" stop-color="#6d4c41"/><stop offset="1" stop-color="#6d4c41" stop-opacity="0"/></radialGradient><linearGradient id="2o44h" x1="50" x2="50" y1="82.67" y2="68.02" gradientUnits="userSpaceOnUse"><stop offset="0" stop-color="#e3e3e3"/><stop offset="1" stop-color="#c9c9c9"/></linearGradient><linearGradient id="2o44i" x1="50.02" x2="50.02" y1="17.33" y2="45.64" gradientUnits="userSpaceOnUse"><stop offset=".02" stop-color="#eee"/><stop offset=".33" stop-color="#e3e3e3"/><stop offset=".88" stop-color="#c5c5c5"/><stop offset="1" stop-color="#bdbdbd"/></linearGradient><linearGradient id="2o44j" x1="50.04" x2="50.04" y1="17.34" y2="44.52" gradientUnits="userSpaceOnUse"><stop offset=".02" stop-color="#eee"/><stop offset=".33" stop-color="#e3e3e3"/><stop offset=".88" stop-color="#c5c5c5"/><stop offset="1" stop-color="#bdbdbd"/></linearGradient></defs><g><g><path fill="none" stroke="#aaa" stroke-miterlimit="20" stroke-opacity=".5" stroke-width="10" d="M100 50c0 27.614-22.386 50-50 50S0 77.614 0 50 22.386 0 50 0s50 22.386 50 50z" clip-path="url(&quot;#2o44a&quot;)"/></g><g><g><path fill="#543930" d="M69.09 58.666c-.683-1.242.186-2.505 1.674-4.069 2.357-2.483 2.543-4.205 1.257-8.05-5.972-12.283-42.093-10.86-44.083 0-1.417 2.975-1.04 5.567 1.318 8.05 1.482 1.564 2.351 2.827 1.673 4.069-.662 1.208-2.63 1.383-2.63 1.383s.454 1.236 1.547 1.903c1.012.619 2.259.76 3.118.783 0 0 3.363 4.654 12.157 4.654h9.783c8.794 0 12.157-4.654 12.157-4.654.859-.022 2.106-.165 3.117-.783 1.094-.667 1.548-1.903 1.548-1.903s-1.974-.175-2.636-1.383z"/></g><g><path fill="url(#2o44b)" d="M49.99 67.388v-5.162l15.624-1.236 1.422 1.75s-3.363 4.654-12.157 4.654z"/></g><g><path fill="url(#2o44c)" d="M67.006 60.474c-2.34-3.555 2.85-4.884 2.85-4.884l.005.005c-.902 1.122-1.312 2.1-.782 3.068.662 1.209 2.63 1.384 2.63 1.384s-2.685 2.384-4.703.427z"/></g><g><path fill="url(#2o44d)" d="M71.997 46.769c1.564 3.472.738 5.96-.957 7.52-.236.212-1.936 2.126-2.16 2.788 0 0-3.867-4.615-5.02-7.328-.236-.547-.444-1.11-.477-1.695-.022-.438.06-.957.35-1.33.361-.453 6.273-3.964 6.273-3.964 0 .005 1.99 4.009 1.99 4.009z"/></g><g><path fill="url(#2o44e)" d="M27.928 46.546c-1.586 3.32-.733 5.819 1.192 7.924.241.263 1.586 1.646 1.833 2.396 0 0 4.396-5.157 5.682-8.225.262-.618.497-1.258.53-1.914.022-.493-.066-1.083-.394-1.499-.404-.514-2.827-4.178-3.51-4.178-1.297 0-5.333 5.496-5.333 5.496z"/></g><g><path fill="url(#2o44f)" d="M50.016 67.388v-5.162L34.392 60.99l-1.422 1.75s3.363 4.654 12.157 4.654z"/></g><g><path fill="url(#2o44g)" d="M33.003 60.474c2.34-3.555-2.85-4.884-2.85-4.884l-.005.005c.903 1.122 1.313 2.1.782 3.068-.661 1.209-2.63 1.384-2.63 1.384s2.685 2.384 4.703.427z"/></g><g><g><path fill="url(#2o44h)" d="M78.435 81.166v1.646H21.56v-1.646c0-8.017 9.674-12.058 20.89-13.261 2.472-.274 5.015-.4 7.547-.405h.077c2.51 0 5.031.142 7.47.427 11.255 1.312 20.891 5.665 20.891 13.24z"/></g><g><path fill="#b9bbbd" d="M57.544 67.927v3.893c0 2.992-3.068 5.42-6.858 5.42h-1.373c-3.79 0-6.863-2.428-6.863-5.425v-3.91c2.472-.274 5.015-.4 7.547-.405h.076c2.51 0 5.032.142 7.47.427z"/></g><g><path fill="#b9bbbd" d="M48.79 75.98h2.483v6.836H48.79z"/></g></g><g><path fill="#99674f" d="M54.961 64.26H45.03v5.458c0 2.466 2.023 4.468 4.517 4.468h.903c2.493 0 4.517-2.002 4.517-4.468V64.26z"/></g><g><path fill="#99674f" d="M64.95 42.58H35.056c-3.221 0-5.857 2.81-5.857 6.24 0 3.429 2.636 6.24 5.857 6.24h29.887c3.22 0 5.857-2.811 5.857-6.24 0-3.43-2.63-6.24-5.852-6.24z"/></g><g><path fill="#ba8d68" d="M50.001 21.05c-9.515 0-18.331 10.177-18.331 24.823 0 14.568 9.084 21.77 18.331 21.77 9.248 0 18.332-7.202 18.332-21.77 0-14.646-8.816-24.823-18.332-24.823z"/></g><g><g><path fill="#49362e" d="M41.006 49.948c1.49 0 2.696-1.249 2.696-2.789s-1.207-2.789-2.696-2.789-2.696 1.249-2.696 2.79c0 1.54 1.207 2.788 2.696 2.788z"/></g><g><path fill="#49362e" d="M58.986 49.948c1.49 0 2.696-1.249 2.696-2.789s-1.207-2.789-2.696-2.789-2.696 1.249-2.696 2.79c0 1.54 1.207 2.788 2.696 2.788z"/></g></g><g><g><path fill="#613e31" d="M45.067 42.246c-.508-.673-1.679-1.646-3.954-1.646-2.275 0-3.45.979-3.954 1.646a.696.696 0 0 0-.01.848c.142.191.568.372 1.039.213.47-.159 1.389-.634 2.925-.645 1.537.01 2.456.486 2.926.645.47.159.897-.016 1.04-.213a.696.696 0 0 0-.012-.848z"/></g><g><path fill="#613e31" d="M62.837 42.246c-.508-.673-1.679-1.646-3.954-1.646-2.275 0-3.45.979-3.954 1.646a.696.696 0 0 0-.01.848c.142.191.568.372 1.039.213.47-.159 1.389-.634 2.925-.645 1.537.01 2.456.486 2.926.645.47.159.897-.016 1.04-.213a.696.696 0 0 0-.012-.848z"/></g></g><g><path fill="#99674f" d="M52.113 52.224a.684.684 0 0 0-.175-.044h-3.866a.632.632 0 0 0-.175.044c-.35.142-.542.503-.378.891.165.388.936 1.471 2.489 1.471s2.324-1.088 2.488-1.47c.159-.39-.033-.75-.383-.892z"/></g><g><path fill="#5d4037" d="M54.606 56.64c-1.745 1.034-7.454 1.034-9.193 0-1-.596-2.024.318-1.608 1.225.41.892 3.527 2.964 6.218 2.964 2.69 0 5.77-2.072 6.18-2.964.41-.907-.596-1.82-1.597-1.225z"/></g><g><g><path fill="#543930" d="M71.91 28.731c-1.334-2.018-4.325-4.725-7.01-4.905-.433-2.581-32.758-4.5-31.167.448-1.602.066-3.702.744-4.812 2.992-1.324 2.68-.853 4.916-.47 5.988-1.379 1.17-3.112 3.659-1.926 6.89.897 2.434 4.468 3.555 4.468 3.555-.251 4.38.564 7.077.996 8.165.076.192.344.175.393-.022.542-2.17 2.385-9.734 2.204-11.052 0 0 6.207-1.23 12.124-5.589a17.533 17.533 0 0 1 3.9-2.193c7.432-2.959 8.985 2.09 8.985 2.09s5.151-.99 6.705 6.162c.585 2.68.978 6.973 1.312 9.975.022.214.312.257.394.06.52-1.192 1.558-3.554 1.804-5.966.088-.848 2.374-1.969 3.358-5.61 1.324-4.857-.29-9.527-1.258-10.988z"/></g></g><g><g><path fill="#b9bbbd" d="M73.883 38.998s-3.325-4.616-17.954-9.127C44.357 26.3 33.05 26.42 28.35 27.032c0 0-.147.126-.53.684 0 0 13.858-1.526 29.334 4.14 5.688 2.083 13.273 4.687 16.412 9.007z"/></g><g/><g><path fill="url(#2o44i)" d="M48.133 37.167c13.459-2.483 21.771-4.047 26.026-1.684.356-3.659-.853-6.306-1.969-7.673-4.752-5.835-16.34-10.62-22.257-10.62-5.792 0-16.68 2.784-22.176 10.62-4.435 6.317.175 18.736.175 18.736s4.479-6.48 20.201-9.379z"/></g><g><path fill="#b9bbbd" d="M26.06 39.007s3.325-4.616 17.954-9.127c11.566-3.566 22.881-3.451 27.573-2.839 0 0 .148.126.53.684 0 0-13.857-1.526-29.334 4.14-5.687 2.083-13.272 4.686-16.411 9.007z"/></g><g><path fill="#c4c6c7" d="M74.152 35.09c0 .13 0 .262-.006.393a25.253 25.253 0 0 1-.213 3.035c-.077.64-.175 1.258-.284 1.86-.635 3.494-1.641 6.168-1.641 6.168s-5.611-6.633-20.716-9.958c-.251-.05-.503-.104-.76-.159a157.3 157.3 0 0 0-2.505-.509c-.464-.093-.924-.18-1.378-.268-11.129-2.121-18.107-2.477-20.475-.246-.355-3.658.624-6.168 1.663-7.596.06-.082.12-.164.186-.246.18-.24.383-.487.601-.744 1.258-1.47 3.036-3.133 4.403-4.068 3.73-2.565 7.115-4.096 10.576-4.884h.006a27.49 27.49 0 0 1 4.943-.645c.23-.011.465-.017.69-.022.23-.011.459-.011.683-.011.18 0 .366.005.552.01.941.028 1.915.143 2.904.33.192.032.389.07.586.114 4.85 1.044 10.078 3.735 14.191 6.508.848.574 1.553 1.077 2.198 1.64.044.033.082.071.12.11a12.046 12.046 0 0 1 1.707 1.908c1.148 1.58 1.706 3.571 1.892 5.655.05.536.071 1.083.077 1.624z"/></g><g><path fill="#b9bbbd" d="M73.94 38.519c-.076.64-.175 1.257-.284 1.859-3.555-3.97-10.768-6.453-16.27-8.471-13.59-4.971-25.965-4.578-29.356-4.342.18-.241.383-.487.602-.744 5.315-.52 16.285-.416 27.491 3.04 11.457 3.533 16.198 7.126 17.817 8.658z"/></g><g><path fill="url(#2o44j)" d="M74.191 35.106l-.033-.017c-3.57-1.766-21.131-.415-26.124.832-.126.032-.246.06-.355.092-19.092 5.453-19.726 10.254-19.748 10.522v.011l-.006-.005c-.027-.088-.317-.88-.667-2.122a39.594 39.594 0 0 1-.946-4.069 41.914 41.914 0 0 1-.279-1.86c-.224-1.891-.3-3.91-.033-5.812.093-.7.236-1.384.432-2.04v-.006c.301-1.022.733-1.974 1.324-2.822 3.987-5.682 10.068-8.706 15.854-9.942h.005a31.499 31.499 0 0 1 4.315-.612l.629-.033c.23-.011.465-.017.69-.022.229-.011.458-.011.683-.011.18 0 .366.005.552.01.23.012.47.023.71.04a23.98 23.98 0 0 1 2.78.404c1.99.4 4.133 1.06 6.244 1.92.525.213 1.04.437 1.559.678h.005c3.243 1.476 6.322 3.396 8.58 5.55.045.033.083.071.121.11.317.3.613.612.897.924a14.757 14.757 0 0 1 .81.984c.896 1.187 1.952 2.953 2.05 5.671.022.509.006 1.05-.049 1.625z"/></g><g><path fill="#b9bbbd" d="M71.995 27.564c-3.276-.23-15.745-.672-29.438 4.342-5.491 2.013-12.682 4.49-16.248 8.444a41.892 41.892 0 0 1-.279-1.86c1.64-1.536 6.393-5.113 17.795-8.629 11.244-3.467 22.264-3.56 27.552-3.035.219.246.426.492.618.738z"/></g><g><path fill="#b9bbbd" d="M74.193 35.105l-.033-.016c0 .131 0 .262-.005.394-2.68-.186-12.425-.596-22.854 1.104a74.953 74.953 0 0 0-7.132 1.515c-5.643 1.51-12.67 4.485-16.236 8.433l-.006.005c-.027-.087-.317-.88-.667-2.121 2.122-1.745 7.826-5.885 16.16-8.023 1.05-.268 2.133-.52 3.238-.744 11.15-2.286 24.44-2.428 27.425-2.187l.159.016c.022.509.006 1.05-.05 1.624z"/></g><g><path fill="#b9bbbd" d="M61.777 20.24c-4.857.038-13.858.94-21.832 4.255C36.02 26.13 28.527 30.198 26 32.675c.093-.7.235-1.383.432-2.04v-.004c1.345-1.258 5.048-4.239 12.562-7.176 8.16-3.188 17.008-4.117 21.224-3.893.525.213 1.039.437 1.559.678z"/></g></g></g></g></svg>