<svg xmlns="http://www.w3.org/2000/svg" width="100" height="100" viewBox="0 0 100 100"><defs><clipPath id="988ja"><path fill="#fff" d="M100 50c0 27.614-22.386 50-50 50S0 77.614 0 50 22.386 0 50 0s50 22.386 50 50z"/></clipPath><radialGradient id="988jb" cx="58.24" cy="59.82" r="12.81" gradientUnits="userSpaceOnUse"><stop offset=".73" stop-color="#d6d6d6" stop-opacity="0"/><stop offset=".81" stop-color="#e6e6e6" stop-opacity=".28"/><stop offset=".92" stop-color="#f8f8f8" stop-opacity=".7"/><stop offset="1" stop-color="#fff"/></radialGradient><radialGradient id="988jc" cx="69.94" cy="57.96" r="4.42" gradientUnits="userSpaceOnUse"><stop offset="0" stop-color="#fff"/><stop offset=".3" stop-color="#f8f8f8" stop-opacity=".7"/><stop offset=".72" stop-color="#e6e6e6" stop-opacity=".28"/><stop offset="1" stop-color="#d6d6d6" stop-opacity="0"/></radialGradient><radialGradient id="988jd" cx="61" cy="47.89" r="16.62" gradientUnits="userSpaceOnUse"><stop offset=".59" stop-color="#d6d6d6" stop-opacity="0"/><stop offset=".71" stop-color="#e6e6e6" stop-opacity=".28"/><stop offset=".88" stop-color="#f8f8f8" stop-opacity=".7"/><stop offset="1" stop-color="#fff"/></radialGradient><radialGradient id="988je" cx="39.08" cy="49.22" r="16.62" gradientUnits="userSpaceOnUse"><stop offset=".62" stop-color="#d6d6d6" stop-opacity="0"/><stop offset=".73" stop-color="#e6e6e6" stop-opacity=".28"/><stop offset=".89" stop-color="#f8f8f8" stop-opacity=".7"/><stop offset="1" stop-color="#fff"/></radialGradient><radialGradient id="988jf" cx="37.35" cy="61.75" r="12.81" gradientUnits="userSpaceOnUse"><stop offset="0" stop-color="#d6d6d6" stop-opacity="0"/><stop offset=".22" stop-color="#e6e6e6" stop-opacity=".28"/><stop offset=".55" stop-color="#f8f8f8" stop-opacity=".7"/><stop offset=".77" stop-color="#fff"/></radialGradient><radialGradient id="988jg" cx="30.4" cy="58.5" r="3.79" gradientUnits="userSpaceOnUse"><stop offset="0" stop-color="#fff"/><stop offset=".3" stop-color="#f8f8f8" stop-opacity=".7"/><stop offset=".72" stop-color="#e6e6e6" stop-opacity=".28"/><stop offset="1" stop-color="#d6d6d6" stop-opacity="0"/></radialGradient><linearGradient id="988jh" x1="50" x2="50" y1="74.24" y2="82.71" gradientUnits="userSpaceOnUse"><stop offset="0" stop-color="#f78c1f"/><stop offset=".49" stop-color="#f37f21"/><stop offset="1" stop-color="#ed6d23"/></linearGradient><radialGradient id="988ji" cx="59.85" cy="38.54" r="19.48" gradientUnits="userSpaceOnUse"><stop offset=".64" stop-color="#d6d6d6" stop-opacity="0"/><stop offset=".74" stop-color="#e6e6e6" stop-opacity=".28"/><stop offset=".89" stop-color="#f8f8f8" stop-opacity=".7"/><stop offset="1" stop-color="#fff"/></radialGradient><radialGradient id="988jj" cx="37.82" cy="17.55" r="9.47" gradientUnits="userSpaceOnUse"><stop offset=".29" stop-color="#fff"/><stop offset=".8" stop-color="#d6d6d6" stop-opacity="0"/></radialGradient><radialGradient id="988jk" cx="52.55" cy="24.74" r="15.6" gradientUnits="userSpaceOnUse"><stop offset=".55" stop-color="#d6d6d6" stop-opacity="0"/><stop offset=".68" stop-color="#e6e6e6" stop-opacity=".28"/><stop offset=".87" stop-color="#f8f8f8" stop-opacity=".7"/><stop offset="1" stop-color="#fff"/></radialGradient><radialGradient id="988jl" cx="36.94" cy="24.71" r="4.69" gradientUnits="userSpaceOnUse"><stop offset="0" stop-color="#d6d6d6" stop-opacity="0"/><stop offset=".28" stop-color="#e6e6e6" stop-opacity=".28"/><stop offset=".7" stop-color="#f8f8f8" stop-opacity=".7"/><stop offset="1" stop-color="#fff"/></radialGradient><radialGradient id="988jm" cx="38.19" cy="29.94" r="11.16" gradientUnits="userSpaceOnUse"><stop offset=".4" stop-color="#d6d6d6" stop-opacity="0"/><stop offset=".57" stop-color="#e6e6e6" stop-opacity=".28"/><stop offset=".82" stop-color="#f8f8f8" stop-opacity=".7"/><stop offset="1" stop-color="#fff"/></radialGradient><radialGradient id="988jn" cx="35.45" cy="39.33" r="9.24" gradientUnits="userSpaceOnUse"><stop offset=".43" stop-color="#d6d6d6" stop-opacity="0"/><stop offset=".59" stop-color="#e6e6e6" stop-opacity=".28"/><stop offset=".83" stop-color="#f8f8f8" stop-opacity=".7"/><stop offset="1" stop-color="#fff"/></radialGradient></defs><g><g><path fill="none" stroke="#aaa" stroke-miterlimit="20" stroke-opacity=".5" stroke-width="10" d="M100 50c0 27.614-22.386 50-50 50S0 77.614 0 50 22.386 0 50 0s50 22.386 50 50z" clip-path="url(&quot;#988ja&quot;)"/></g><g><g><path fill="#d6d6d6" d="M69.087 58.671c-.683-1.241.186-2.505 1.674-4.069 2.357-2.482 4.921-8.241 2.537-14.087.016-.033-.47-1.017-.454-1.05l-.979-.05c-.311-.043-11.08-.065-21.858-.065-10.78 0-21.542.022-21.859.066 0 0-1.45 1.066-1.438 1.099-2.38 5.846.18 11.605 2.537 14.087 1.482 1.564 2.352 2.828 1.674 4.07-.662 1.208-2.63 1.383-2.63 1.383s.453 1.236 1.547 1.903c1.012.618 2.258.76 3.117.782 0 0 3.363 4.654 12.157 4.654h9.79c8.793 0 12.156-4.654 12.156-4.654.859-.022 2.106-.164 3.117-.782 1.094-.667 1.548-1.903 1.548-1.903s-1.974-.175-2.636-1.384z"/></g><g opacity=".5"><g opacity=".25"><path fill="url(#988jb)" d="M49.99 67.388v-5.162l15.624-1.236 1.422 1.75s-3.363 4.654-12.157 4.654z"/></g><g opacity=".25"><path fill="url(#988jc)" d="M67.006 60.474c-2.34-3.555 2.85-4.884 2.85-4.884l.005.005c-.902 1.122-1.312 2.1-.782 3.068.662 1.209 2.63 1.384 2.63 1.384s-2.685 2.384-4.703.427z"/></g><g opacity=".25"><path fill="url(#988jd)" d="M73.304 40.512c2.324 5.66-.12 11.49-2.412 13.95-.317.34-1.646 1.646-1.952 2.691 0 0-5.217-7.279-6.776-11.556-.317-.864-.602-1.75-.64-2.668-.027-.69.077-1.51.476-2.09.487-.716 11.025-.929 11.025-.929l.279.602z"/></g><g opacity=".25"><path fill="url(#988je)" d="M26.706 40.507c-2.319 5.66.126 11.49 2.412 13.945.317.34 1.646 1.646 1.952 2.691 0 0 5.217-7.279 6.776-11.556.317-.864.601-1.75.64-2.668.027-.69-.077-1.51-.476-2.09-.487-.716-1.056-.524-1.882-.524-1.575 0-8.47-.405-9.007-.405.006.005-.415.607-.415.607z"/></g><g opacity=".25"><path fill="url(#988jf)" d="M50.016 67.388v-5.162L34.392 60.99l-1.422 1.75s3.363 4.654 12.157 4.654z"/></g><g opacity=".25"><path fill="url(#988jg)" d="M33.013 60.474c2.34-3.555-2.85-4.884-2.85-4.884l-.005.005c.903 1.122 1.313 2.1.782 3.068-.661 1.209-2.63 1.384-2.63 1.384s2.68 2.384 4.703.427z"/></g></g><g><path fill="url(#988jh)" d="M50.073 66.78h-.071c-13.94.016-27.962 4.102-27.962 13.825v2.21h55.929v-2.21c-.006-9.166-13.896-13.825-27.896-13.825z"/></g><g><path fill="#edc391" d="M45.03 64.26v5.458c0 2.466 2.023 4.468 4.517 4.468h.903c2.493 0 4.517-2.002 4.517-4.468V64.26z"/></g><g><path fill="#edc391" d="M64.95 42.58H35.056c-3.221 0-5.857 2.81-5.857 6.24 0 3.429 2.636 6.24 5.857 6.24h29.887c3.22 0 5.857-2.811 5.857-6.24 0-3.43-2.63-6.24-5.852-6.24z"/></g><g><path fill="#f9ddbd" d="M50.001 21.05c-9.515 0-18.331 10.177-18.331 24.823 0 14.568 9.084 21.77 18.331 21.77 9.248 0 18.332-7.202 18.332-21.77 0-14.646-8.816-24.823-18.332-24.823z"/></g><g><g><path fill="#312d2d" d="M41.006 49.948c1.49 0 2.696-1.249 2.696-2.789s-1.207-2.789-2.696-2.789-2.696 1.249-2.696 2.79c0 1.54 1.207 2.788 2.696 2.788z"/></g><g><path fill="#312d2d" d="M58.986 49.948c1.49 0 2.696-1.249 2.696-2.789s-1.207-2.789-2.696-2.789-2.696 1.249-2.696 2.79c0 1.54 1.207 2.788 2.696 2.788z"/></g></g><g><g><path fill="#9e9e9e" d="M45.067 42.246c-.508-.673-1.679-1.646-3.954-1.646-2.275 0-3.45.979-3.954 1.646a.696.696 0 0 0-.01.848c.142.191.568.372 1.039.213.47-.159 1.389-.634 2.925-.645 1.537.01 2.456.486 2.926.645.47.159.897-.016 1.04-.213a.696.696 0 0 0-.012-.848z"/></g><g><path fill="#9e9e9e" d="M62.837 42.246c-.508-.673-1.679-1.646-3.954-1.646-2.275 0-3.45.979-3.954 1.646a.696.696 0 0 0-.01.848c.142.191.568.372 1.039.213.47-.159 1.389-.634 2.925-.645 1.537.01 2.456.486 2.926.645.47.159.897-.016 1.04-.213a.696.696 0 0 0-.012-.848z"/></g></g><g><path fill="#dba689" d="M52.113 52.224a.684.684 0 0 0-.175-.044h-3.866a.632.632 0 0 0-.175.044c-.35.142-.542.503-.378.891.165.388.936 1.471 2.489 1.471s2.324-1.088 2.488-1.47c.159-.39-.033-.75-.383-.892z"/></g><g><path fill="#444" d="M54.606 56.64c-1.745 1.034-7.454 1.034-9.193 0-1-.596-2.024.318-1.608 1.225.41.892 3.527 2.964 6.218 2.964 2.69 0 5.77-2.072 6.18-2.964.41-.907-.596-1.82-1.597-1.225z"/></g><g><g><path fill="#d6d6d6" d="M71.915 28.736c-1.334-2.023-4.326-4.725-7.01-4.905-.433-2.581-3.195-4.769-5.869-5.616-7.235-2.292-11.944.278-14.47 1.662-.525.29-3.921 2.171-6.295.82-1.487-.847-1.46-3.139-1.46-3.139s-4.665 1.778-3.068 6.721c-1.602.066-3.702.744-4.812 2.992-1.324 2.68-.853 4.916-.47 5.988-1.379 1.17-3.112 3.659-1.926 6.89.897 2.434 4.468 3.555 4.468 3.555-.251 4.38.564 7.077.996 8.17.076.192.344.176.393-.021.542-2.166 2.39-9.735 2.204-11.053 0 0 6.207-1.23 12.124-5.589a17.78 17.78 0 0 1 3.9-2.198c7.432-2.959 8.99 2.089 8.99 2.089s5.152-.99 6.705 6.163c.585 2.68.984 6.973 1.312 9.975.022.214.312.257.4.06.52-1.192 1.558-3.554 1.804-5.966.088-.848 2.374-1.969 3.358-5.61 1.307-4.857-.306-9.527-1.274-10.988z"/></g><g opacity=".5"><g opacity=".25"><path fill="url(#988ji)" d="M69.808 45.353c.087-.848 2.373-1.969 3.357-5.61.104-.39.192-.783.274-1.177.798-4.424-.635-8.487-1.526-9.832-1.236-1.87-3.883-4.315-6.398-4.818-.22-.028-.433-.055-.635-.066 0 0 .18 1.176-.295 2.11-.613 1.215-1.865 1.505-1.865 1.505 6.552 6.551 6.081 12.031 7.088 17.888z"/></g><g opacity=".25"><path fill="url(#988jj)" d="M46.149 19.042c-.596.29-1.127.58-1.58.826-.526.29-3.922 2.17-6.295.82-1.46-.831-1.46-3.051-1.46-3.128-.673.859-2.707 6.99 3.243 7.4 2.564.174 4.145-2.063 5.086-3.955.333-.694.864-1.695 1.006-1.963z"/></g><g opacity=".25"><path fill="url(#988jk)" d="M58.294 17.988c4.003 1.083 5.955 3.123 6.606 5.84.191.8.421 8.248-13.798-.218-5.288-3.15-3.844-5.119-3.226-5.343 2.417-.875 5.933-1.493 10.418-.279z"/></g><g opacity=".25"><path fill="url(#988jl)" d="M36.783 17.56c-.005.006-.016.006-.032.012h-.006c-.508.213-4.506 2.067-3.013 6.705l4.255.683c-3.768-3.817-1.187-7.41-1.187-7.41s-.011.005-.017.01z"/></g><g opacity=".25"><path fill="url(#988jm)" d="M36.366 24.701l-2.63-.421c-.105 0-.455.033-.646.06-1.482.208-3.227.974-4.173 2.931-1.017 2.111-.99 3.921-.71 5.13.081.405.246.864.246.864s1.301-1.236 4.402-1.318z"/></g><g opacity=".25"><path fill="url(#988jn)" d="M28.326 33.367c-1.296 1.149-3.041 3.714-1.756 6.896.974 2.401 4.424 3.44 4.424 3.44 0 .011.69.214 1.045.214l.81-11.977c-1.658 0-3.25.498-4.277 1.214.016.022-.252.197-.246.213z"/></g></g></g></g></g></svg>