<svg xmlns="http://www.w3.org/2000/svg" width="100" height="100" viewBox="0 0 100 100"><defs><linearGradient id="aru5a" x1="50" x2="50" y1="67.42" y2="86.29" gradientUnits="userSpaceOnUse"><stop offset="0" stop-color="#616161"/><stop offset=".28" stop-color="#545454"/><stop offset=".78" stop-color="#323232"/><stop offset="1" stop-color="#212121"/></linearGradient><radialGradient id="aru5b" cx="57.88" cy="60.13" r="12.81" gradientUnits="userSpaceOnUse"><stop offset=".73" stop-color="#bfa055" stop-opacity="0"/><stop offset="1" stop-color="#bfa055"/></radialGradient><radialGradient id="aru5c" cx="70.49" cy="58.23" r="3.79" gradientUnits="userSpaceOnUse"><stop offset=".66" stop-color="#bfa055"/><stop offset="1" stop-color="#bfa055" stop-opacity="0"/></radialGradient><radialGradient id="aru5d" cx="60.68" cy="47.52" r="16.63" gradientUnits="userSpaceOnUse"><stop offset=".73" stop-color="#bfa055" stop-opacity="0"/><stop offset="1" stop-color="#bfa055"/></radialGradient><radialGradient id="aru5e" cx="39.13" cy="47.52" r="16.63" gradientUnits="userSpaceOnUse"><stop offset=".73" stop-color="#bfa055" stop-opacity="0"/><stop offset="1" stop-color="#bfa055"/></radialGradient><radialGradient id="aru5f" cx="41.94" cy="60.13" r="12.81" gradientUnits="userSpaceOnUse"><stop offset=".73" stop-color="#bfa055" stop-opacity="0"/><stop offset="1" stop-color="#bfa055"/></radialGradient><radialGradient id="aru5g" cx="29.32" cy="58.23" r="3.79" gradientUnits="userSpaceOnUse"><stop offset=".66" stop-color="#bfa055"/><stop offset="1" stop-color="#bfa055" stop-opacity="0"/></radialGradient><radialGradient id="aru5h" cx="59.76" cy="38.74" r="19.48" gradientUnits="userSpaceOnUse"><stop offset=".7" stop-color="#bfa055" stop-opacity="0"/><stop offset="1" stop-color="#bfa055"/></radialGradient><radialGradient id="aru5i" cx="40.75" cy="17.5" r="5.11" gradientUnits="userSpaceOnUse"><stop offset=".58" stop-color="#bfa055"/><stop offset="1" stop-color="#bfa055" stop-opacity="0"/></radialGradient><radialGradient id="aru5j" cx="52.17" cy="26.78" r="15.98" gradientUnits="userSpaceOnUse"><stop offset=".7" stop-color="#bfa055" stop-opacity="0"/><stop offset="1" stop-color="#bfa055"/></radialGradient><radialGradient id="aru5k" cx="38.71" cy="22.16" r="4.69" gradientUnits="userSpaceOnUse"><stop offset=".7" stop-color="#bfa055" stop-opacity="0"/><stop offset="1" stop-color="#bfa055"/></radialGradient><radialGradient id="aru5l" cx="38.06" cy="30.44" r="8.8" gradientUnits="userSpaceOnUse"><stop offset=".66" stop-color="#bfa055" stop-opacity="0"/><stop offset="1" stop-color="#bfa055"/></radialGradient><radialGradient id="aru5m" cx="35.97" cy="38.93" r="9.24" gradientUnits="userSpaceOnUse"><stop offset=".6" stop-color="#bfa055" stop-opacity="0"/><stop offset="1" stop-color="#bfa055"/></radialGradient><clipPath id="aru5n"><path fill="#fff" d="M100 50c0 27.614-22.386 50-50 50S0 77.614 0 50 22.386 0 50 0s50 22.386 50 50z"/></clipPath></defs><g><g><g><path fill="url(#aru5a)" d="M50.074 67.5h-.076c-14.028.016-28.438 3.883-28.438 13.666v1.646h56.875v-1.646c0-9.225-14.273-13.666-28.36-13.666z"/></g><g><path fill="#ab872f" d="M68.987 58.871c-.684-1.241.186-2.505 1.673-4.069 2.358-2.483 4.922-8.241 2.538-14.087.016-.033-.47-1.017-.454-1.05l-.979-.05c-.312-.043-11.08-.065-21.858-.065-10.78 0-21.547.022-21.859.066 0 0-1.45 1.066-1.438 1.099-2.38 5.846.18 11.6 2.537 14.087 1.482 1.564 2.352 2.828 1.674 4.07-.662 1.208-2.63 1.383-2.63 1.383s.453 1.236 1.547 1.903c1.012.618 2.258.76 3.117.782 0 0 3.363 4.654 12.157 4.654h9.79c8.793 0 12.156-4.654 12.156-4.654.859-.022 2.106-.164 3.117-.782 1.094-.667 1.548-1.903 1.548-1.903s-1.974-.18-2.636-1.384z"/></g><g><path fill="url(#aru5b)" d="M49.9 67.588v-5.162l15.624-1.236 1.422 1.75s-3.363 4.654-12.157 4.654z"/></g><g><path fill="url(#aru5c)" d="M66.906 60.684c-2.34-3.555 2.85-4.884 2.85-4.884l.005.005c-.902 1.122-1.312 2.1-.782 3.068.662 1.209 2.63 1.384 2.63 1.384s-2.68 2.384-4.703.427z"/></g><g><path fill="url(#aru5d)" d="M73.204 40.707c2.324 5.66-.12 11.49-2.412 13.95-.312.34-1.646 1.647-1.952 2.691 0 0-5.217-7.278-6.776-11.555-.312-.864-.602-1.75-.64-2.669-.027-.689.077-1.51.476-2.094.487-.717 11.025-.93 11.025-.93z"/></g><g><path fill="url(#aru5e)" d="M26.61 40.707c-2.325 5.66.12 11.49 2.41 13.95.318.34 1.647 1.647 1.953 2.691 0 0 5.217-7.278 6.776-11.555.317-.864.601-1.75.64-2.669.027-.689-.077-1.51-.476-2.094-.487-.717-1.055-.525-1.881-.525-1.575 0-8.471-.405-9.007-.405.005.01-.416.607-.416.607z"/></g><g><path fill="url(#aru5f)" d="M49.916 67.588v-5.162L34.292 61.19l-1.422 1.75s3.363 4.654 12.157 4.654z"/></g><g><path fill="url(#aru5g)" d="M32.903 60.684c2.34-3.555-2.85-4.884-2.85-4.884l-.005.005c.903 1.122 1.313 2.1.782 3.068-.661 1.209-2.63 1.384-2.63 1.384s2.685 2.384 4.703.427z"/></g><g><g><path fill="#c48e6a" d="M49.996 64.26H45.03v5.458c0 2.466 2.023 4.468 4.517 4.468h.903c2.493 0 4.517-2.002 4.517-4.468V64.26z"/></g></g><g><g><path fill="#e0e0e0" d="M43.8 72.97l2.105 9.844h8.417l1.881-9.844z"/></g><g><path fill="#fff" d="M44.394 77.64l5.61-4.67s-1.607-.034-3.34-2.292c-1.018-1.324-1.707-3.298-1.707-3.298l-1.717.432z"/></g><g><path fill="#fff" d="M55.616 77.64L50 72.97s1.608-.034 3.341-2.292c1.018-1.324 1.707-3.298 1.707-3.298l1.717.432z"/></g><g><g><path fill="#9e9e9e" d="M43.283 67.81c-.017 0-.039.005-.055.005v-.005c-.06.01-.12.016-.18.027-1.926.192-3.807.46-5.611.82l-2.177 3.479 3.894 2.384-2.598 3.342 5.086 4.949h4.916z"/></g><g><path fill="#9e9e9e" d="M64.743 72.138l-2.116-3.38a55.488 55.488 0 0 0-5.918-.918L53.45 82.813h4.916l5.086-4.949-2.597-3.341z"/></g></g><g><g><path fill="#212121" d="M50.42 77.97h-.766a1.807 1.807 0 0 1-1.756-1.39l-.29-1.23a1.805 1.805 0 0 1 1.756-2.22h1.34a1.802 1.802 0 0 1 1.755 2.204l-.279 1.23a1.811 1.811 0 0 1-1.76 1.406z"/></g><g><path fill="#212121" d="M41.68 79.036v-6.6c0-.82.891-1.34 1.613-.936l5.846 3.249c.733.404.739 1.449.011 1.87l-5.846 3.352c-.722.405-1.624-.109-1.624-.935z"/></g><g><path fill="#212121" d="M58.092 79.036v-6.6c0-.82-.891-1.34-1.613-.936l-5.846 3.249a1.072 1.072 0 0 0-.01 1.87l5.845 3.352c.722.405 1.624-.109 1.624-.935z"/></g></g><g><path fill="#212121" d="M49.864 81.718a1.094 1.094 0 1 0 0-2.188 1.094 1.094 0 0 0 0 2.188z"/></g></g><g><g><path fill="#c48e6a" d="M64.95 42.58H35.056c-3.221 0-5.857 2.81-5.857 6.24 0 3.429 2.636 6.24 5.857 6.24h29.887c3.22 0 5.857-2.811 5.857-6.24 0-3.43-2.63-6.24-5.852-6.24z"/></g></g><g><g><path fill="#e0bb95" d="M50.001 21.05c-9.515 0-18.331 10.177-18.331 24.828 0 14.569 9.084 21.771 18.331 21.771 9.248 0 18.332-7.208 18.332-21.776 0-14.646-8.816-24.823-18.332-24.823z"/></g></g><g><g><path fill="#ab872f" d="M44.967 42.246c-.508-.673-1.679-1.646-3.954-1.646-2.275 0-3.45.979-3.954 1.646a.696.696 0 0 0-.01.848c.142.191.568.372 1.039.213.47-.159 1.389-.634 2.925-.645 1.537.01 2.456.486 2.926.645.47.159.897-.016 1.04-.213a.704.704 0 0 0-.012-.848z"/></g><g><path fill="#ab872f" d="M62.947 42.246c-.508-.673-1.679-1.646-3.954-1.646-2.275 0-3.45.979-3.954 1.646a.696.696 0 0 0-.01.848c.142.191.568.372 1.039.213.47-.159 1.389-.634 2.925-.645 1.537.01 2.456.486 2.926.645.47.159.897-.016 1.04-.213a.704.704 0 0 0-.012-.848z"/></g></g><g><g><path fill="#5d4037" d="M41.006 49.948c1.49 0 2.696-1.249 2.696-2.789s-1.207-2.789-2.696-2.789-2.696 1.249-2.696 2.79c0 1.54 1.207 2.788 2.696 2.788z"/></g><g><path fill="#5d4037" d="M58.986 49.948c1.49 0 2.696-1.249 2.696-2.789s-1.207-2.789-2.696-2.789-2.696 1.249-2.696 2.79c0 1.54 1.207 2.788 2.696 2.788z"/></g></g><g><path fill="#6d4c41" d="M54.606 56.64c-1.74 1.034-7.454 1.034-9.193 0-1-.596-2.024.318-1.608 1.225.41.892 3.522 2.964 6.218 2.964s5.77-2.072 6.18-2.964c.41-.907-.596-1.82-1.597-1.225z"/></g><g><path fill="#c48e6a" d="M52.109 52.224a.685.685 0 0 0-.175-.044h-3.872a.632.632 0 0 0-.175.044c-.35.142-.542.503-.378.891.165.388.936 1.471 2.489 1.471s2.324-1.088 2.488-1.47c.164-.39-.027-.75-.377-.892z"/></g><g><g><path fill="#ab872f" d="M71.81 28.936c-1.334-2.017-4.325-4.724-7.01-4.905-.432-2.581-3.194-4.769-5.868-5.616-7.236-2.292-11.944.279-14.476 1.657-.525.284-3.921 2.17-6.295.82-1.487-.848-1.46-3.14-1.46-3.14s-4.66 1.778-3.068 6.727c-1.602.066-3.702.744-4.812 2.992-1.324 2.68-.853 4.916-.47 5.988-1.379 1.17-3.112 3.659-1.926 6.89.897 2.434 4.468 3.556 4.468 3.556-.251 4.38.564 7.076.996 8.17.076.191.344.175.393-.022.542-2.171 2.39-9.734 2.204-11.052 0 0 6.207-1.23 12.124-5.59a17.537 17.537 0 0 1 3.9-2.192c7.432-2.959 8.985 2.089 8.985 2.089s5.151-.99 6.704 6.163c.586 2.68.98 6.973 1.313 9.975.022.213.312.257.394.06.52-1.192 1.558-3.555 1.804-5.966.088-.848 2.374-1.97 3.358-5.611 1.324-4.862-.295-9.532-1.258-10.993z"/></g><g><path fill="url(#aru5h)" d="M69.712 45.553c.088-.847 2.373-1.969 3.358-5.61.104-.39.191-.783.273-1.177.799-4.424-.634-8.487-1.526-9.832-1.235-1.865-3.882-4.315-6.392-4.818-.22-.028-.433-.055-.635-.066 0 0 .18 1.176-.295 2.11-.613 1.215-1.865 1.505-1.865 1.505 6.546 6.546 6.076 12.026 7.082 17.888z"/></g><g><path fill="url(#aru5i)" d="M46.044 19.242c-.601.29-1.126.58-1.586.826-.525.284-3.92 2.17-6.294.82-1.46-.831-1.46-3.051-1.46-3.128-.673.859-2.707 6.99 3.243 7.4 2.564.174 4.145-2.062 5.086-3.955.333-.694.87-1.695 1.011-1.963z"/></g><g><path fill="url(#aru5j)" d="M58.184 18.198c4.003 1.083 5.955 3.123 6.606 5.84.191.8.421 8.248-13.798-.218-5.288-3.15-3.844-5.119-3.226-5.343 2.423-.875 5.933-1.493 10.418-.279z"/></g><g><path fill="url(#aru5k)" d="M36.694 17.76c-.006.006-.017.006-.033.017h-.006c-.508.214-4.506 2.068-3.013 6.7l4.255.683c-3.768-3.817-1.187-7.41-1.187-7.41s-.011.005-.017.01z"/></g><g><path fill="url(#aru5l)" d="M36.266 24.901l-2.63-.421c-.105 0-.455.033-.646.06-1.482.208-3.227.974-4.173 2.931-1.017 2.111-.99 3.921-.71 5.13.081.405.246.864.246.864s1.301-1.236 4.402-1.318z"/></g><g><path fill="url(#aru5m)" d="M28.226 33.562c-1.296 1.148-3.041 3.713-1.756 6.896.968 2.4 4.424 3.44 4.424 3.44 0 .01.69.219 1.045.219l.81-11.977c-1.658 0-3.25.498-4.277 1.214.01.016-.252.191-.246.208z"/></g></g></g><g><path fill="none" stroke="#aaa" stroke-miterlimit="20" stroke-opacity=".5" stroke-width="10" d="M100 50c0 27.614-22.386 50-50 50S0 77.614 0 50 22.386 0 50 0s50 22.386 50 50z" clip-path="url(&quot;#aru5n&quot;)"/></g></g></svg>