<svg xmlns="http://www.w3.org/2000/svg" width="100" height="100" viewBox="0 0 100 100"><defs><clipPath id="hl8aa"><path fill="#fff" d="M100 50c0 27.614-22.386 50-50 50S0 77.614 0 50 22.386 0 50 0s50 22.386 50 50z"/></clipPath></defs><g><g><path fill="none" stroke="#004dc1" stroke-miterlimit="20" stroke-width="10" d="M100 50c0 27.614-22.386 50-50 50S0 77.614 0 50 22.386 0 50 0s50 22.386 50 50z" clip-path="url(&quot;#hl8aa&quot;)"/></g><g><g><path fill="#00bfa5" d="M23 79.097v5.9h53.784v-5.9c0-9.053-13.408-13.654-26.895-13.637C36.493 65.472 23 69.505 23 79.097z"/></g><g><path fill="#dba689" d="M49.642 63.02H44.44v5.495c0 2.486 2.12 4.503 4.733 4.503h.945c2.613 0 4.733-2.017 4.733-4.503V63.02z"/></g><g opacity=".54"><path d="M33.83 79.8h1.719v4.847H33.83z"/></g><g opacity=".54"><path d="M63.79 79.8h1.719v4.847H63.79z"/></g><g><path fill="#dba689" d="M68.083 40.89s3.374.584 3.374 4.223c0 3.208-2.463 4.475-4.927 4.475V40.89z"/></g><g><path fill="#dba689" d="M31.255 40.89s-3.375.584-3.375 4.223c0 3.208 2.464 4.475 4.927 4.475V40.89z"/></g><g><path fill="#fadcbc" d="M49.668 17.08c-14.554 0-18.358 11.282-18.358 27.13 0 16.432 10.56 20.683 18.358 20.683 7.683 0 18.357-4.125 18.357-20.683.006-15.854-3.804-27.13-18.357-27.13z"/></g><g><path fill="#444" d="M43.31 45.498c0 1.639-1.094 2.962-2.452 2.962-1.352 0-2.458-1.33-2.458-2.962 0-1.639 1.1-2.968 2.458-2.968s2.452 1.33 2.452 2.968"/></g><g><path fill="#444" d="M55.72 45.678c0 1.639 1.094 2.962 2.458 2.962 1.352 0 2.452-1.33 2.452-2.962 0-1.639-1.1-2.968-2.452-2.968-1.364 0-2.458 1.33-2.458 2.968"/></g><g><path fill="#513f35" d="M54.984 55.69H44.36c-.607 0-.87.407-.47 1.026.562.859 2.659 2.51 5.782 2.51 3.122 0 5.22-1.651 5.78-2.51.402-.613.138-1.026-.47-1.026z"/></g><g><path fill="#dba689" d="M52.234 51.17a9.83 9.83 0 0 1-2.567.378c-.722 0-1.661-.126-2.567-.378-.383-.11-.538.258-.4.498.286.504 1.443 1.524 2.967 1.524s2.682-1.02 2.968-1.524c.138-.24-.011-.607-.4-.498z"/></g><g><path fill="#f9e073" d="M50.111 15.007s-.286-.011-.407-.005c-.12 0-.407.005-.407.005-15.704.304-20.437 9.752-20.437 16.301 0 6.366.006 11.047.006 11.047s.252-.258.71-.62a4.661 4.661 0 0 1 1.037-.595l.79 5.317 5.232-10.932a.17.17 0 0 1 .178-.097l3.1.343c3.116.344 6.25.516 9.379.522v.005c.137 0 .269-.005.406-.005.138 0 .27.005.407.005v-.005a88.521 88.521 0 0 0 9.38-.522l3.1-.343a.187.187 0 0 1 .177.097l5.231 10.932.79-5.317s.545.218 1.038.596c.464.36.71.619.71.619s.006-4.676.006-11.047c.011-6.549-4.721-15.997-20.426-16.3z"/></g></g></g></svg>