<svg xmlns="http://www.w3.org/2000/svg" width="24" height="24" viewBox="0 0 24 24"><g><g><path fill="#0076ff" d="M20.99 11.817c0-5.046-4.127-9.174-9.173-9.174S2.643 6.77 2.643 11.817c0 5.046 4.128 9.174 9.174 9.174 5.046 0 9.174-4.128 9.174-9.174zm2.294 0c0 6.307-5.16 11.467-11.467 11.467S.349 18.124.349 11.817 5.51.349 11.817.349c6.307 0 11.467 5.16 11.467 11.468zm-5.733 0c0 3.21-2.523 5.734-5.734 5.734s-5.734-2.523-5.734-5.734 2.523-5.734 5.734-5.734c3.21 0 5.734 2.523 5.734 5.734z"/></g></g></svg>