<?xml version="1.0" encoding="UTF-8" standalone="no"?>
<svg
   xmlns:dc="http://purl.org/dc/elements/1.1/"
   xmlns:cc="http://creativecommons.org/ns#"
   xmlns:rdf="http://www.w3.org/1999/02/22-rdf-syntax-ns#"
   xmlns:svg="http://www.w3.org/2000/svg"
   xmlns="http://www.w3.org/2000/svg"
   viewBox="0 0 4000 4000"
   height="4000"
   width="4000"
   xml:space="preserve"
   id="svg2"
   version="1.1"><metadata
     id="metadata8"><rdf:RDF><cc:Work
         rdf:about=""><dc:format>image/svg+xml</dc:format><dc:type
           rdf:resource="http://purl.org/dc/dcmitype/StillImage" /></cc:Work></rdf:RDF></metadata><defs
     id="defs6" /><g
     transform="matrix(1.3333333,0,0,-1.3333333,0,4000)"
     id="g10"><g
       transform="scale(0.1)"
       id="g12"><g
         transform="scale(1.24944)"
         id="g14"><path
           id="path16"
           style="fill:#c01f26;fill-opacity:1;fill-rule:nonzero;stroke:none"
           d="M 12005.4,15178.9 H 7710.72 c 0,0 1051.19,-8700.33 1098.09,-9100.1 46.83,-399.86 236.83,-672.15 780.83,-672.15 543.96,0 2415.76,0 2415.76,0 0,0 1871.8,0 2415.7,0 544,0 734,272.29 780.8,672.15 46.9,399.77 1098.1,9100.1 1098.1,9100.1 h -4294.6" /></g><g
         transform="scale(1.04352)"
         id="g18"><path
           id="path20"
           style="fill:none;stroke:#ffffff;stroke-width:622.89099121;stroke-linecap:round;stroke-linejoin:miter;stroke-miterlimit:10;stroke-dasharray:none;stroke-opacity:1"
           d="M 14374.4,16300 V 7812.11" /></g><g
         transform="scale(1.04248)"
         id="g22"><path
           id="path24"
           style="fill:none;stroke:#ffffff;stroke-width:623.51000977;stroke-linecap:round;stroke-linejoin:miter;stroke-miterlimit:10;stroke-dasharray:none;stroke-opacity:1"
           d="m 11668.4,16300 689.9,-8464.01" /></g><g
         transform="scale(1.09423)"
         id="g26"><path
           id="path28"
           style="fill:none;stroke:#ffffff;stroke-width:594.02697754;stroke-linecap:round;stroke-linejoin:miter;stroke-miterlimit:10;stroke-dasharray:none;stroke-opacity:1"
           d="M 16300,15529.2 15642.7,7465.45" /></g><g
         transform="scale(1.42606)"
         id="g30"><path
           id="path32"
           style="fill:#c01f26;fill-opacity:1;fill-rule:nonzero;stroke:none"
           d="m 11748.7,13753.2 h 620.3 c 81.9,208.8 126.9,435.5 126.9,672.6 0,237 -45,463.7 -126.9,672.5 -275.9,702.9 -971.6,1201.7 -1786.3,1201.7 -814.65,0 -1510.27,-498.8 -1786.14,-1201.7 -81.9,-208.8 -126.85,-435.5 -126.85,-672.5 0,-237.1 44.95,-463.8 126.85,-672.6 h 620.31 2331.83" /></g><g
         transform="scale(1.37803)"
         id="g34"><path
           id="path36"
           style="fill:#ffffff;fill-opacity:1;fill-rule:nonzero;stroke:none"
           d="m 12158.2,14232.6 c 122.8,204 193.4,441.9 193.4,695.9 0,254.1 -70.6,492 -193.5,696 -243.5,404.3 -692.7,675.5 -1206.5,675.5 -513.8,0 -962.98,-271.2 -1206.45,-675.5 -122.93,-204 -193.46,-441.9 -193.46,-696 0,-254 70.53,-491.9 193.39,-695.9 h 2413.12" /></g><g
         transform="scale(1.32092)"
         id="g38"><path
           id="path40"
           style="fill:#c01f26;fill-opacity:1;fill-rule:nonzero;stroke:none"
           d="M 15720.9,14847.9 H 6990.52 c 0,0 281.78,1452.1 1621.35,1452.1 h 2697.43 c 60,0 92.8,0 92.8,0 h 2697.3 c 1339.8,0 1621.5,-1452.1 1621.5,-1452.1" /></g></g></g></svg>